<?xml version="1.0" encoding="utf-8"?>
<!-- Generator: Adobe Illustrator 18.0.0, SVG Export Plug-In . SVG Version: 6.00 Build 0)  -->
<!DOCTYPE svg PUBLIC "-//W3C//DTD SVG 1.1//EN" "http://www.w3.org/Graphics/SVG/1.1/DTD/svg11.dtd">
<svg version="1.1" id="Calque_1" xmlns="http://www.w3.org/2000/svg" xmlns:xlink="http://www.w3.org/1999/xlink" x="0px" y="0px"
	 viewBox="0 0 841.9 1190.6" enable-background="new 0 0 841.9 1190.6" xml:space="preserve">
<g id="Calque_4">
	<g>
		<circle fill="#06AD97" cx="420.5" cy="594.8" r="420.5"/>
		<g>
			
				<rect x="198.2" y="339.1" fill="none" stroke="#FFFFFF" stroke-width="11" stroke-miterlimit="10" width="450.2" height="494.2"/>
			
				<line fill="none" stroke="#FFFFFF" stroke-width="11" stroke-linecap="round" stroke-miterlimit="10" x1="279.7" y1="264.4" x2="279.7" y2="395.6"/>
			
				<line fill="none" stroke="#FFFFFF" stroke-width="11" stroke-linecap="round" stroke-miterlimit="10" x1="567.9" y1="264.4" x2="567.9" y2="395.6"/>
			<path fill="none" stroke="#FFFFFF" stroke-width="11" stroke-miterlimit="10" d="M296.9,530.6h-50.8c-3.8,0-7.7-2.9-7.7-7.7V476
				c0-3.8,2.9-7.7,7.7-7.7h50.8c3.8,0,7.7,2.9,7.7,7.7v47C303.6,527.8,300.7,530.6,296.9,530.6z"/>
			<path fill="none" stroke="#FFFFFF" stroke-width="11" stroke-miterlimit="10" d="M396.5,530.6h-50.8c-3.8,0-7.7-2.9-7.7-7.7V476
				c0-3.8,2.9-7.7,7.7-7.7h50.8c3.8,0,7.7,2.9,7.7,7.7v47C404.2,527.8,401.3,530.6,396.5,530.6z"/>
			<path fill="none" stroke="#FFFFFF" stroke-width="11" stroke-miterlimit="10" d="M498,530.6h-50.8c-3.8,0-7.7-2.9-7.7-7.7V476
				c0-3.8,2.9-7.7,7.7-7.7H498c3.8,0,7.7,2.9,7.7,7.7v47C505.7,527.8,501.9,530.6,498,530.6z"/>
			<path fill="none" stroke="#FFFFFF" stroke-width="11" stroke-miterlimit="10" d="M598.6,530.6h-50.8c-3.8,0-7.7-2.9-7.7-7.7V476
				c0-3.8,2.9-7.7,7.7-7.7h50.8c3.8,0,7.7,2.9,7.7,7.7v47C606.3,527.8,603.4,530.6,598.6,530.6z"/>
			<path fill="none" stroke="#FFFFFF" stroke-width="11" stroke-miterlimit="10" d="M296.9,626.4h-50.8c-3.8,0-7.7-2.9-7.7-7.7
				v-46.9c0-3.8,2.9-7.7,7.7-7.7h50.8c3.8,0,7.7,2.9,7.7,7.7v46.9C303.6,623.5,300.7,626.4,296.9,626.4z"/>
			<path fill="none" stroke="#FFFFFF" stroke-width="11" stroke-miterlimit="10" d="M396.5,626.4h-50.8c-3.8,0-7.7-2.9-7.7-7.7
				v-46.9c0-3.8,2.9-7.7,7.7-7.7h50.8c3.8,0,7.7,2.9,7.7,7.7v46.9C404.2,623.5,401.3,626.4,396.5,626.4z"/>
			<path fill="none" stroke="#FFFFFF" stroke-width="11" stroke-miterlimit="10" d="M498,626.4h-50.8c-3.8,0-7.7-2.9-7.7-7.7v-46.9
				c0-3.8,2.9-7.7,7.7-7.7H498c3.8,0,7.7,2.9,7.7,7.7v46.9C505.7,623.5,501.9,626.4,498,626.4z"/>
			<path fill="none" stroke="#FFFFFF" stroke-width="11" stroke-miterlimit="10" d="M598.6,626.4h-50.8c-3.8,0-7.7-2.9-7.7-7.7
				v-46.9c0-3.8,2.9-7.7,7.7-7.7h50.8c3.8,0,7.7,2.9,7.7,7.7v46.9C606.3,623.5,603.4,626.4,598.6,626.4z"/>
			<path fill="none" stroke="#FFFFFF" stroke-width="11" stroke-miterlimit="10" d="M296.9,730.8h-50.8c-3.8,0-7.7-2.9-7.7-7.7
				v-46.9c0-3.8,2.9-7.7,7.7-7.7h50.8c3.8,0,7.7,2.9,7.7,7.7v46.9C303.6,727.9,300.7,730.8,296.9,730.8z"/>
			<path fill="none" stroke="#FFFFFF" stroke-width="11" stroke-miterlimit="10" d="M396.5,730.8h-50.8c-3.8,0-7.7-2.9-7.7-7.7
				v-46.9c0-3.8,2.9-7.7,7.7-7.7h50.8c3.8,0,7.7,2.9,7.7,7.7v46.9C404.2,727.9,401.3,730.8,396.5,730.8z"/>
			<path fill="none" stroke="#FFFFFF" stroke-width="11" stroke-miterlimit="10" d="M498,730.8h-50.8c-3.8,0-7.7-2.9-7.7-7.7v-46.9
				c0-3.8,2.9-7.7,7.7-7.7H498c3.8,0,7.7,2.9,7.7,7.7v46.9C505.7,727.9,501.9,730.8,498,730.8z"/>
			<path fill="none" stroke="#FFFFFF" stroke-width="11" stroke-miterlimit="10" d="M598.6,730.8h-50.8c-3.8,0-7.7-2.9-7.7-7.7
				v-46.9c0-3.8,2.9-7.7,7.7-7.7h50.8c3.8,0,7.7,2.9,7.7,7.7v46.9C606.3,727.9,603.4,730.8,598.6,730.8z"/>
		</g>
	</g>
</g>
</svg>
