<?xml version="1.0" encoding="utf-8"?>
<!-- Generator: Adobe Illustrator 18.0.0, SVG Export Plug-In . SVG Version: 6.00 Build 0)  -->
<!DOCTYPE svg PUBLIC "-//W3C//DTD SVG 1.1//EN" "http://www.w3.org/Graphics/SVG/1.1/DTD/svg11.dtd">
<svg version="1.1" id="Calque_1" xmlns="http://www.w3.org/2000/svg" xmlns:xlink="http://www.w3.org/1999/xlink" x="0px" y="0px"
	 viewBox="0 0 841.9 1190.6" enable-background="new 0 0 841.9 1190.6" xml:space="preserve">
<g id="Calque_4">
	<g>
		<circle fill="#06AD97" cx="418.6" cy="594.8" r="420.5"/>
		<g>
			
				<rect x="196.3" y="339.1" fill="none" stroke="#FFFFFF" stroke-width="11" stroke-miterlimit="10" width="450.2" height="494.2"/>
			
				<line fill="none" stroke="#FFFFFF" stroke-width="11" stroke-linecap="round" stroke-miterlimit="10" x1="277.8" y1="264.4" x2="277.8" y2="395.6"/>
			
				<line fill="none" stroke="#FFFFFF" stroke-width="11" stroke-linecap="round" stroke-miterlimit="10" x1="566" y1="264.4" x2="566" y2="395.6"/>
			<path fill="none" stroke="#FFFFFF" stroke-width="11" stroke-miterlimit="10" d="M295,530.6h-50.8c-3.8,0-7.7-2.9-7.7-7.7V476
				c0-3.8,2.9-7.7,7.7-7.7H295c3.8,0,7.7,2.9,7.7,7.7v47C301.7,527.8,298.8,530.6,295,530.6z"/>
			<path fill="none" stroke="#FFFFFF" stroke-width="11" stroke-miterlimit="10" d="M394.6,530.6h-50.8c-3.8,0-7.7-2.9-7.7-7.7V476
				c0-3.8,2.9-7.7,7.7-7.7h50.8c3.8,0,7.7,2.9,7.7,7.7v47C402.3,527.8,399.4,530.6,394.6,530.6z"/>
			<path fill="none" stroke="#FFFFFF" stroke-width="11" stroke-miterlimit="10" d="M496.1,530.6h-50.8c-3.8,0-7.7-2.9-7.7-7.7V476
				c0-3.8,2.9-7.7,7.7-7.7h50.8c3.8,0,7.7,2.9,7.7,7.7v47C503.8,527.8,500,530.6,496.1,530.6z"/>
			<path fill="none" stroke="#FFFFFF" stroke-width="11" stroke-miterlimit="10" d="M596.7,530.6h-50.8c-3.8,0-7.7-2.9-7.7-7.7V476
				c0-3.8,2.9-7.7,7.7-7.7h50.8c3.8,0,7.7,2.9,7.7,7.7v47C604.4,527.8,601.5,530.6,596.7,530.6z"/>
			<path fill="none" stroke="#FFFFFF" stroke-width="11" stroke-miterlimit="10" d="M295,626.4h-50.8c-3.8,0-7.7-2.9-7.7-7.7v-46.9
				c0-3.8,2.9-7.7,7.7-7.7H295c3.8,0,7.7,2.9,7.7,7.7v46.9C301.7,623.5,298.8,626.4,295,626.4z"/>
			<path fill="none" stroke="#FFFFFF" stroke-width="11" stroke-miterlimit="10" d="M394.6,626.4h-50.8c-3.8,0-7.7-2.9-7.7-7.7
				v-46.9c0-3.8,2.9-7.7,7.7-7.7h50.8c3.8,0,7.7,2.9,7.7,7.7v46.9C402.3,623.5,399.4,626.4,394.6,626.4z"/>
			<path fill="none" stroke="#FFFFFF" stroke-width="11" stroke-miterlimit="10" d="M496.1,626.4h-50.8c-3.8,0-7.7-2.9-7.7-7.7
				v-46.9c0-3.8,2.9-7.7,7.7-7.7h50.8c3.8,0,7.7,2.9,7.7,7.7v46.9C503.8,623.5,500,626.4,496.1,626.4z"/>
			<path fill="none" stroke="#FFFFFF" stroke-width="11" stroke-miterlimit="10" d="M596.7,626.4h-50.8c-3.8,0-7.7-2.9-7.7-7.7
				v-46.9c0-3.8,2.9-7.7,7.7-7.7h50.8c3.8,0,7.7,2.9,7.7,7.7v46.9C604.4,623.5,601.5,626.4,596.7,626.4z"/>
			<path fill="none" stroke="#FFFFFF" stroke-width="11" stroke-miterlimit="10" d="M295,730.8h-50.8c-3.8,0-7.7-2.9-7.7-7.7v-46.9
				c0-3.8,2.9-7.7,7.7-7.7H295c3.8,0,7.7,2.9,7.7,7.7v46.9C301.7,727.9,298.8,730.8,295,730.8z"/>
			<path fill="none" stroke="#FFFFFF" stroke-width="11" stroke-miterlimit="10" d="M394.6,730.8h-50.8c-3.8,0-7.7-2.9-7.7-7.7
				v-46.9c0-3.8,2.9-7.7,7.7-7.7h50.8c3.8,0,7.7,2.9,7.7,7.7v46.9C402.3,727.9,399.4,730.8,394.6,730.8z"/>
			<path fill="none" stroke="#FFFFFF" stroke-width="11" stroke-miterlimit="10" d="M496.1,730.8h-50.8c-3.8,0-7.7-2.9-7.7-7.7
				v-46.9c0-3.8,2.9-7.7,7.7-7.7h50.8c3.8,0,7.7,2.9,7.7,7.7v46.9C503.8,727.9,500,730.8,496.1,730.8z"/>
			<path fill="none" stroke="#FFFFFF" stroke-width="11" stroke-miterlimit="10" d="M596.7,730.8h-50.8c-3.8,0-7.7-2.9-7.7-7.7
				v-46.9c0-3.8,2.9-7.7,7.7-7.7h50.8c3.8,0,7.7,2.9,7.7,7.7v46.9C604.4,727.9,601.5,730.8,596.7,730.8z"/>
		</g>
	</g>
</g>
</svg>
