<?xml version="1.0" encoding="utf-8"?>
<!-- Generator: Adobe Illustrator 18.0.0, SVG Export Plug-In . SVG Version: 6.00 Build 0)  -->
<!DOCTYPE svg PUBLIC "-//W3C//DTD SVG 1.1//EN" "http://www.w3.org/Graphics/SVG/1.1/DTD/svg11.dtd">
<svg version="1.1" id="Calque_1" xmlns="http://www.w3.org/2000/svg" xmlns:xlink="http://www.w3.org/1999/xlink" x="0px" y="0px"
	 viewBox="0 0 850.4 850.4" enable-background="new 0 0 850.4 850.4" xml:space="preserve">
<g id="Calque_4">
	<g>
		<circle fill="#08AD97" cx="424.5" cy="425.8" r="420.5"/>
		<g>
			
				<rect x="203.2" y="170.1" fill="none" stroke="#FFFFFF" stroke-width="11" stroke-miterlimit="10" width="450.2" height="494.2"/>
			
				<line fill="none" stroke="#FFFFFF" stroke-width="11" stroke-linecap="round" stroke-miterlimit="10" x1="284.6" y1="95.4" x2="284.6" y2="226.6"/>
			
				<line fill="none" stroke="#FFFFFF" stroke-width="11" stroke-linecap="round" stroke-miterlimit="10" x1="572.9" y1="95.4" x2="572.9" y2="226.6"/>
			<path fill="none" stroke="#FFFFFF" stroke-width="11" stroke-miterlimit="10" d="M300.9,361.6h-50.8c-3.8,0-7.7-2.9-7.7-7.7V307
				c0-3.8,2.9-7.7,7.7-7.7h50.8c3.8,0,7.7,2.9,7.7,7.7V354C308.6,358.8,304.7,361.6,300.9,361.6z"/>
			<path fill="none" stroke="#FFFFFF" stroke-width="11" stroke-miterlimit="10" d="M401.5,361.6h-50.8c-3.8,0-7.7-2.9-7.7-7.7V307
				c0-3.8,2.9-7.7,7.7-7.7h50.8c3.8,0,7.7,2.9,7.7,7.7V354C409.1,358.8,406.3,361.6,401.5,361.6z"/>
			<path fill="none" stroke="#FFFFFF" stroke-width="11" stroke-miterlimit="10" d="M503,361.6h-50.8c-3.8,0-7.7-2.9-7.7-7.7V307
				c0-3.8,2.9-7.7,7.7-7.7H503c3.8,0,7.7,2.9,7.7,7.7V354C510.7,358.8,506.8,361.6,503,361.6z"/>
			<path fill="none" stroke="#FFFFFF" stroke-width="11" stroke-miterlimit="10" d="M603.6,361.6h-50.8c-3.8,0-7.7-2.9-7.7-7.7V307
				c0-3.8,2.9-7.7,7.7-7.7h50.8c3.8,0,7.7,2.9,7.7,7.7V354C610.3,358.8,607.4,361.6,603.6,361.6z"/>
			<path fill="none" stroke="#FFFFFF" stroke-width="11" stroke-miterlimit="10" d="M300.9,457.4h-50.8c-3.8,0-7.7-2.9-7.7-7.7
				v-46.9c0-3.8,2.9-7.7,7.7-7.7h50.8c3.8,0,7.7,2.9,7.7,7.7v46.9C308.6,454.5,304.7,457.4,300.9,457.4z"/>
			<path fill="none" stroke="#FFFFFF" stroke-width="11" stroke-miterlimit="10" d="M401.5,457.4h-50.8c-3.8,0-7.7-2.9-7.7-7.7
				v-46.9c0-3.8,2.9-7.7,7.7-7.7h50.8c3.8,0,7.7,2.9,7.7,7.7v46.9C409.1,454.5,406.3,457.4,401.5,457.4z"/>
			<path fill="none" stroke="#FFFFFF" stroke-width="11" stroke-miterlimit="10" d="M503,457.4h-50.8c-3.8,0-7.7-2.9-7.7-7.7v-46.9
				c0-3.8,2.9-7.7,7.7-7.7H503c3.8,0,7.7,2.9,7.7,7.7v46.9C510.7,454.5,506.8,457.4,503,457.4z"/>
			<path fill="none" stroke="#FFFFFF" stroke-width="11" stroke-miterlimit="10" d="M603.6,457.4h-50.8c-3.8,0-7.7-2.9-7.7-7.7
				v-46.9c0-3.8,2.9-7.7,7.7-7.7h50.8c3.8,0,7.7,2.9,7.7,7.7v46.9C610.3,454.5,607.4,457.4,603.6,457.4z"/>
			<path fill="none" stroke="#FFFFFF" stroke-width="11" stroke-miterlimit="10" d="M300.9,561.8h-50.8c-3.8,0-7.7-2.9-7.7-7.7
				v-46.9c0-3.8,2.9-7.7,7.7-7.7h50.8c3.8,0,7.7,2.9,7.7,7.7v46.9C308.6,558.9,304.7,561.8,300.9,561.8z"/>
			<path fill="none" stroke="#FFFFFF" stroke-width="11" stroke-miterlimit="10" d="M401.5,561.8h-50.8c-3.8,0-7.7-2.9-7.7-7.7
				v-46.9c0-3.8,2.9-7.7,7.7-7.7h50.8c3.8,0,7.7,2.9,7.7,7.7v46.9C409.1,558.9,406.3,561.8,401.5,561.8z"/>
			<path fill="none" stroke="#FFFFFF" stroke-width="11" stroke-miterlimit="10" d="M503,561.8h-50.8c-3.8,0-7.7-2.9-7.7-7.7v-46.9
				c0-3.8,2.9-7.7,7.7-7.7H503c3.8,0,7.7,2.9,7.7,7.7v46.9C510.7,558.9,506.8,561.8,503,561.8z"/>
			<path fill="none" stroke="#FFFFFF" stroke-width="11" stroke-miterlimit="10" d="M603.6,561.8h-50.8c-3.8,0-7.7-2.9-7.7-7.7
				v-46.9c0-3.8,2.9-7.7,7.7-7.7h50.8c3.8,0,7.7,2.9,7.7,7.7v46.9C610.3,558.9,607.4,561.8,603.6,561.8z"/>
		</g>
	</g>
</g>
</svg>
