<?xml version="1.0" encoding="utf-8"?>
<!-- Generator: Adobe Illustrator 18.0.0, SVG Export Plug-In . SVG Version: 6.00 Build 0)  -->
<!DOCTYPE svg PUBLIC "-//W3C//DTD SVG 1.1//EN" "http://www.w3.org/Graphics/SVG/1.1/DTD/svg11.dtd">
<svg version="1.1" id="Calque_1" xmlns="http://www.w3.org/2000/svg" xmlns:xlink="http://www.w3.org/1999/xlink" x="0px" y="0px"
	 viewBox="0 0 87.9 87.9" enable-background="new 0 0 87.9 87.9" xml:space="preserve">
<g id="Calque_4">
	<g>
		<circle fill="#EC2326" cx="43.9" cy="43.9" r="43.9"/>
		<g>
			<rect x="20.8" y="17.2" fill="none" stroke="#FFFFFF" stroke-width="2.1045" stroke-miterlimit="10" width="47" height="51.6"/>
			
				<line fill="none" stroke="#FFFFFF" stroke-width="2.1045" stroke-linecap="round" stroke-miterlimit="10" x1="29.3" y1="9.4" x2="29.3" y2="23.1"/>
			
				<line fill="none" stroke="#FFFFFF" stroke-width="2.1045" stroke-linecap="round" stroke-miterlimit="10" x1="59.4" y1="9.4" x2="59.4" y2="23.1"/>
			<path fill="none" stroke="#FFFFFF" stroke-width="2.1045" stroke-miterlimit="10" d="M31,37.2h-5.3c-0.4,0-0.8-0.3-0.8-0.8v-4.9
				c0-0.4,0.3-0.8,0.8-0.8H31c0.4,0,0.8,0.3,0.8,0.8v4.9C31.8,36.9,31.4,37.2,31,37.2z"/>
			<path fill="none" stroke="#FFFFFF" stroke-width="2.1045" stroke-miterlimit="10" d="M41.5,37.2h-5.3c-0.4,0-0.8-0.3-0.8-0.8
				v-4.9c0-0.4,0.3-0.8,0.8-0.8h5.3c0.4,0,0.8,0.3,0.8,0.8v4.9C42.3,36.9,42,37.2,41.5,37.2z"/>
			<path fill="none" stroke="#FFFFFF" stroke-width="2.1045" stroke-miterlimit="10" d="M52.1,37.2h-5.3c-0.4,0-0.8-0.3-0.8-0.8
				v-4.9c0-0.4,0.3-0.8,0.8-0.8h5.3c0.4,0,0.8,0.3,0.8,0.8v4.9C52.9,36.9,52.5,37.2,52.1,37.2z"/>
			<path fill="none" stroke="#FFFFFF" stroke-width="2.1045" stroke-miterlimit="10" d="M62.6,37.2h-5.3c-0.4,0-0.8-0.3-0.8-0.8
				v-4.9c0-0.4,0.3-0.8,0.8-0.8h5.3c0.4,0,0.8,0.3,0.8,0.8v4.9C63.3,36.9,63,37.2,62.6,37.2z"/>
			<path fill="none" stroke="#FFFFFF" stroke-width="2.1045" stroke-miterlimit="10" d="M31,47.2h-5.3c-0.4,0-0.8-0.3-0.8-0.8v-4.9
				c0-0.4,0.3-0.8,0.8-0.8H31c0.4,0,0.8,0.3,0.8,0.8v4.9C31.8,46.9,31.4,47.2,31,47.2z"/>
			<path fill="none" stroke="#FFFFFF" stroke-width="2.1045" stroke-miterlimit="10" d="M41.5,47.2h-5.3c-0.4,0-0.8-0.3-0.8-0.8
				v-4.9c0-0.4,0.3-0.8,0.8-0.8h5.3c0.4,0,0.8,0.3,0.8,0.8v4.9C42.3,46.9,42,47.2,41.5,47.2z"/>
			<path fill="none" stroke="#FFFFFF" stroke-width="2.1045" stroke-miterlimit="10" d="M52.1,47.2h-5.3c-0.4,0-0.8-0.3-0.8-0.8
				v-4.9c0-0.4,0.3-0.8,0.8-0.8h5.3c0.4,0,0.8,0.3,0.8,0.8v4.9C52.9,46.9,52.5,47.2,52.1,47.2z"/>
			<path fill="none" stroke="#FFFFFF" stroke-width="2.1045" stroke-miterlimit="10" d="M62.6,47.2h-5.3c-0.4,0-0.8-0.3-0.8-0.8
				v-4.9c0-0.4,0.3-0.8,0.8-0.8h5.3c0.4,0,0.8,0.3,0.8,0.8v4.9C63.3,46.9,63,47.2,62.6,47.2z"/>
			<path fill="none" stroke="#FFFFFF" stroke-width="2.1045" stroke-miterlimit="10" d="M31,58.1h-5.3c-0.4,0-0.8-0.3-0.8-0.8v-4.9
				c0-0.4,0.3-0.8,0.8-0.8H31c0.4,0,0.8,0.3,0.8,0.8v4.9C31.8,57.8,31.4,58.1,31,58.1z"/>
			<path fill="none" stroke="#FFFFFF" stroke-width="2.1045" stroke-miterlimit="10" d="M41.5,58.1h-5.3c-0.4,0-0.8-0.3-0.8-0.8
				v-4.9c0-0.4,0.3-0.8,0.8-0.8h5.3c0.4,0,0.8,0.3,0.8,0.8v4.9C42.3,57.8,42,58.1,41.5,58.1z"/>
			<path fill="none" stroke="#FFFFFF" stroke-width="2.1045" stroke-miterlimit="10" d="M52.1,58.1h-5.3c-0.4,0-0.8-0.3-0.8-0.8
				v-4.9c0-0.4,0.3-0.8,0.8-0.8h5.3c0.4,0,0.8,0.3,0.8,0.8v4.9C52.9,57.8,52.5,58.1,52.1,58.1z"/>
			<path fill="none" stroke="#FFFFFF" stroke-width="2.1045" stroke-miterlimit="10" d="M62.6,58.1h-5.3c-0.4,0-0.8-0.3-0.8-0.8
				v-4.9c0-0.4,0.3-0.8,0.8-0.8h5.3c0.4,0,0.8,0.3,0.8,0.8v4.9C63.3,57.8,63,58.1,62.6,58.1z"/>
		</g>
	</g>
</g>
</svg>
