<?xml version="1.0" encoding="utf-8"?>
<!-- Generator: Adobe Illustrator 18.0.0, SVG Export Plug-In . SVG Version: 6.00 Build 0)  -->
<!DOCTYPE svg PUBLIC "-//W3C//DTD SVG 1.1//EN" "http://www.w3.org/Graphics/SVG/1.1/DTD/svg11.dtd">
<svg version="1.1" id="Calque_1" xmlns="http://www.w3.org/2000/svg" xmlns:xlink="http://www.w3.org/1999/xlink" x="0px" y="0px"
	 viewBox="0 0 87.9 87.9" enable-background="new 0 0 87.9 87.9" xml:space="preserve">
<g id="Calque_1_1_" display="none">
	<g display="inline">
		<circle fill="#112A1B" cx="34.7" cy="33.2" r="3.3"/>
		<g>
			<path fill="#FFFFFF" d="M36.1,34.9h-2.4c-0.5,0-0.8-0.4-0.8-0.8v-1.6c0-0.5,0.4-0.8,0.8-0.8h2.4c0.5,0,0.8,0.4,0.8,0.8v1.6
				C36.8,34.5,36.5,34.9,36.1,34.9z"/>
			<path fill="#FFFFFF" d="M34,31.8l0.1-0.3c0-0.1,0.1-0.1,0.1-0.1h0.6c0.1,0,0.1,0.1,0.1,0.1l0.1,0.3H34z"/>
			<circle fill="#112A1B" cx="34.8" cy="33.3" r="0.8"/>
			<circle fill="#112A1B" cx="36.1" cy="32.3" r="0.1"/>
		</g>
	</g>
</g>
<g id="Calque_2" display="none">
	<circle display="inline" fill="#112A1B" cx="25.7" cy="27.1" r="3.3"/>
	<g display="inline">
		<ellipse fill="#FFFFFF" cx="25.7" cy="26.3" rx="0.7" ry="0.7"/>
		<path fill="#FFFFFF" d="M24.7,28.1c0-0.6,0.5-1.1,1-1.1c0.5,0,1,0.5,1,1.1H24.7z"/>
		<rect x="24" y="24.7" fill="none" stroke="#FFFFFF" stroke-width="2" stroke-miterlimit="10" width="3.4" height="4.9"/>
		
			<line fill="none" stroke="#FFFFFF" stroke-width="1.5865" stroke-linecap="round" stroke-miterlimit="10" x1="23.7" y1="25" x2="24.3" y2="25"/>
		
			<line fill="none" stroke="#FFFFFF" stroke-width="1.5865" stroke-linecap="round" stroke-miterlimit="10" x1="23.7" y1="25.6" x2="24.3" y2="25.6"/>
		
			<line fill="none" stroke="#FFFFFF" stroke-width="1.5865" stroke-linecap="round" stroke-miterlimit="10" x1="23.7" y1="26.1" x2="24.3" y2="26.1"/>
		
			<line fill="none" stroke="#FFFFFF" stroke-width="1.5865" stroke-linecap="round" stroke-miterlimit="10" x1="23.7" y1="26.7" x2="24.3" y2="26.7"/>
		
			<line fill="none" stroke="#FFFFFF" stroke-width="1.5865" stroke-linecap="round" stroke-miterlimit="10" x1="23.7" y1="27.3" x2="24.3" y2="27.3"/>
		
			<line fill="none" stroke="#FFFFFF" stroke-width="1.5865" stroke-linecap="round" stroke-miterlimit="10" x1="23.7" y1="27.9" x2="24.3" y2="27.9"/>
		
			<line fill="none" stroke="#FFFFFF" stroke-width="1.5865" stroke-linecap="round" stroke-miterlimit="10" x1="23.7" y1="28.4" x2="24.3" y2="28.4"/>
		
			<line fill="none" stroke="#FFFFFF" stroke-width="1.5865" stroke-linecap="round" stroke-miterlimit="10" x1="23.7" y1="29" x2="24.3" y2="29"/>
		<path fill="none" stroke="#FFFFFF" stroke-width="1.5865" stroke-linecap="round" stroke-miterlimit="10" d="M27.6,25"/>
		<path fill="none" stroke="#FFFFFF" stroke-width="1.5865" stroke-linecap="round" stroke-miterlimit="10" d="M27.6,25.4"/>
		<path fill="#FFFFFF" d="M27.5,24.6L27.5,24.6c0.1,0,0.2,0.1,0.2,0.2v0.4c0,0.1-0.1,0.2-0.2,0.2l0,0V24.6z"/>
		<path fill="#FFFFFF" d="M27.5,25.3L27.5,25.3c0.1,0,0.2,0.1,0.2,0.2v0.4c0,0.1-0.1,0.2-0.2,0.2l0,0V25.3z"/>
		<path fill="#FFFFFF" d="M27.5,26L27.5,26c0.1,0,0.2,0.1,0.2,0.2v0.4c0,0.1-0.1,0.2-0.2,0.2l0,0V26z"/>
		<path fill="#FFFFFF" d="M27.5,26.6L27.5,26.6c0.1,0,0.2,0.1,0.2,0.2v0.4c0,0.1-0.1,0.2-0.2,0.2l0,0V26.6z"/>
	</g>
</g>
<g id="Calque_4" display="none">
	<g display="inline">
		<circle fill="#0AAD97" cx="48.7" cy="35.8" r="3.3"/>
		<g>
			<rect x="46.9" y="33.8" fill="none" stroke="#FFFFFF" stroke-width="3.5759" stroke-miterlimit="10" width="3.6" height="3.9"/>
			
				<line fill="none" stroke="#FFFFFF" stroke-width="4" stroke-linecap="round" stroke-miterlimit="10" x1="47.5" y1="33.2" x2="47.5" y2="34.3"/>
			
				<line fill="none" stroke="#FFFFFF" stroke-width="4" stroke-linecap="round" stroke-miterlimit="10" x1="49.9" y1="33.2" x2="49.9" y2="34.3"/>
			<path fill="none" stroke="#FFFFFF" stroke-width="2" stroke-miterlimit="10" d="M47.7,35.4h-0.4c0,0-0.1,0-0.1-0.1v-0.4
				c0,0,0-0.1,0.1-0.1h0.4c0,0,0.1,0,0.1,0.1L47.7,35.4C47.7,35.3,47.7,35.4,47.7,35.4z"/>
			<path fill="none" stroke="#FFFFFF" stroke-width="2" stroke-miterlimit="10" d="M48.5,35.4h-0.4c0,0-0.1,0-0.1-0.1v-0.4
				c0,0,0-0.1,0.1-0.1h0.4c0,0,0.1,0,0.1,0.1L48.5,35.4C48.6,35.3,48.5,35.4,48.5,35.4z"/>
			<path fill="none" stroke="#FFFFFF" stroke-width="2" stroke-miterlimit="10" d="M49.3,35.4h-0.4c0,0-0.1,0-0.1-0.1v-0.4
				c0,0,0-0.1,0.1-0.1h0.4c0,0,0.1,0,0.1,0.1L49.3,35.4C49.4,35.3,49.4,35.4,49.3,35.4z"/>
			<path fill="none" stroke="#FFFFFF" stroke-width="2" stroke-miterlimit="10" d="M50.1,35.4h-0.4c0,0-0.1,0-0.1-0.1v-0.4
				c0,0,0-0.1,0.1-0.1h0.4c0,0,0.1,0,0.1,0.1L50.1,35.4C50.2,35.3,50.2,35.4,50.1,35.4z"/>
			<path fill="none" stroke="#FFFFFF" stroke-width="2" stroke-miterlimit="10" d="M47.7,36.1h-0.4c0,0-0.1,0-0.1-0.1v-0.4
				c0,0,0-0.1,0.1-0.1h0.4c0,0,0.1,0,0.1,0.1L47.7,36.1L47.7,36.1z"/>
			<path fill="none" stroke="#FFFFFF" stroke-width="2" stroke-miterlimit="10" d="M48.5,36.1h-0.4c0,0-0.1,0-0.1-0.1v-0.4
				c0,0,0-0.1,0.1-0.1h0.4c0,0,0.1,0,0.1,0.1L48.5,36.1C48.6,36.1,48.5,36.1,48.5,36.1z"/>
			<path fill="none" stroke="#FFFFFF" stroke-width="2" stroke-miterlimit="10" d="M49.3,36.1h-0.4c0,0-0.1,0-0.1-0.1v-0.4
				c0,0,0-0.1,0.1-0.1h0.4c0,0,0.1,0,0.1,0.1L49.3,36.1C49.4,36.1,49.4,36.1,49.3,36.1z"/>
			<path fill="none" stroke="#FFFFFF" stroke-width="2" stroke-miterlimit="10" d="M50.1,36.1h-0.4c0,0-0.1,0-0.1-0.1v-0.4
				c0,0,0-0.1,0.1-0.1h0.4c0,0,0.1,0,0.1,0.1L50.1,36.1C50.2,36.1,50.2,36.1,50.1,36.1z"/>
			<path fill="none" stroke="#FFFFFF" stroke-width="2" stroke-miterlimit="10" d="M47.7,36.9h-0.4c0,0-0.1,0-0.1-0.1v-0.4
				c0,0,0-0.1,0.1-0.1h0.4c0,0,0.1,0,0.1,0.1L47.7,36.9L47.7,36.9z"/>
			<path fill="none" stroke="#FFFFFF" stroke-width="2" stroke-miterlimit="10" d="M48.5,36.9h-0.4c0,0-0.1,0-0.1-0.1v-0.4
				c0,0,0-0.1,0.1-0.1h0.4c0,0,0.1,0,0.1,0.1L48.5,36.9C48.6,36.9,48.5,36.9,48.5,36.9z"/>
			<path fill="none" stroke="#FFFFFF" stroke-width="2" stroke-miterlimit="10" d="M49.3,36.9h-0.4c0,0-0.1,0-0.1-0.1v-0.4
				c0,0,0-0.1,0.1-0.1h0.4c0,0,0.1,0,0.1,0.1L49.3,36.9C49.4,36.9,49.4,36.9,49.3,36.9z"/>
			<path fill="none" stroke="#FFFFFF" stroke-width="2" stroke-miterlimit="10" d="M50.1,36.9h-0.4c0,0-0.1,0-0.1-0.1v-0.4
				c0,0,0-0.1,0.1-0.1h0.4c0,0,0.1,0,0.1,0.1L50.1,36.9C50.2,36.9,50.2,36.9,50.1,36.9z"/>
		</g>
	</g>
</g>
<g>
	<circle fill="#ED1F24" cx="44" cy="43.9" r="43.9"/>
	<g>
		<ellipse fill="#FFFFFF" cx="44.2" cy="33.9" rx="9.3" ry="9.2"/>
		<path fill="#FFFFFF" d="M31.5,57.2c0-7.8,5.9-14,13.3-14s13.3,6.3,13.3,14C58.1,57.2,31.5,57.2,31.5,57.2z"/>
		<rect x="22.8" y="11.8" fill="none" stroke="#FFFFFF" stroke-width="2" stroke-miterlimit="10" width="44.7" height="64.3"/>
		
			<line fill="none" stroke="#FFFFFF" stroke-width="1.5865" stroke-linecap="round" stroke-miterlimit="10" x1="19.3" y1="16.7" x2="26.4" y2="16.7"/>
		
			<line fill="none" stroke="#FFFFFF" stroke-width="1.5865" stroke-linecap="round" stroke-miterlimit="10" x1="19.3" y1="24.1" x2="26.4" y2="24.1"/>
		
			<line fill="none" stroke="#FFFFFF" stroke-width="1.5865" stroke-linecap="round" stroke-miterlimit="10" x1="19.3" y1="31.6" x2="26.4" y2="31.6"/>
		
			<line fill="none" stroke="#FFFFFF" stroke-width="1.5865" stroke-linecap="round" stroke-miterlimit="10" x1="19.3" y1="39.1" x2="26.4" y2="39.1"/>
		
			<line fill="none" stroke="#FFFFFF" stroke-width="1.5865" stroke-linecap="round" stroke-miterlimit="10" x1="19.3" y1="46.5" x2="26.4" y2="46.5"/>
		
			<line fill="none" stroke="#FFFFFF" stroke-width="1.5865" stroke-linecap="round" stroke-miterlimit="10" x1="19.3" y1="53.9" x2="26.4" y2="53.9"/>
		
			<line fill="none" stroke="#FFFFFF" stroke-width="1.5865" stroke-linecap="round" stroke-miterlimit="10" x1="19.3" y1="61.4" x2="26.4" y2="61.4"/>
		
			<line fill="none" stroke="#FFFFFF" stroke-width="1.5865" stroke-linecap="round" stroke-miterlimit="10" x1="19.3" y1="68.8" x2="26.4" y2="68.8"/>
		<path fill="none" stroke="#FFFFFF" stroke-width="1.5865" stroke-linecap="round" stroke-miterlimit="10" d="M69.6,16"/>
		<path fill="none" stroke="#FFFFFF" stroke-width="1.5865" stroke-linecap="round" stroke-miterlimit="10" d="M69.6,20.9"/>
		<path fill="#FFFFFF" d="M68.7,11.4L68.7,11.4c1.1,0,1.9,0.9,1.9,1.9v4.9c0,1.1-0.9,1.9-1.9,1.9l0,0V11.4z"/>
		<path fill="#FFFFFF" d="M68.7,20.1L68.7,20.1c1.1,0,1.9,0.9,1.9,1.9v4.9c0,1.1-0.9,1.9-1.9,1.9l0,0V20.1z"/>
		<path fill="#FFFFFF" d="M68.7,29L68.7,29c1.1,0,1.9,0.9,1.9,1.9v4.9c0,1.1-0.9,1.9-1.9,1.9l0,0V29z"/>
		<path fill="#FFFFFF" d="M68.7,37.7L68.7,37.7c1.1,0,1.9,0.9,1.9,1.9v4.9c0,1.1-0.9,1.9-1.9,1.9l0,0V37.7z"/>
	</g>
</g>
</svg>
