<?xml version="1.0" encoding="utf-8"?>
<!-- Generator: Adobe Illustrator 18.0.0, SVG Export Plug-In . SVG Version: 6.00 Build 0)  -->
<!DOCTYPE svg PUBLIC "-//W3C//DTD SVG 1.1//EN" "http://www.w3.org/Graphics/SVG/1.1/DTD/svg11.dtd">
<svg version="1.1" id="Calque_1" xmlns="http://www.w3.org/2000/svg" xmlns:xlink="http://www.w3.org/1999/xlink" x="0px" y="0px"
	 viewBox="0 0 850.4 850.4" enable-background="new 0 0 850.4 850.4" xml:space="preserve">
<g id="Calque_3">
	<g>
		<circle fill="#1E1E1D" cx="424.5" cy="425.8" r="420.5"/>
		<g>
			<path fill="#FFFFFF" d="M425.4,620.3"/>
			<path fill="#FFFFFF" d="M689.8,620.3"/>
			<path fill="none" stroke="#FFFFFF" stroke-width="11" stroke-miterlimit="10" d="M639,692.1l-418.6-6.7
				c22-12.5,30.6-11.5,32.6-46V206.5c0-20.1,16.3-36.4,36.4-36.4H640c20.1,0,36.4,16.3,36.4,36.4v448.2
				C675.4,675.8,660.1,692.1,639,692.1z"/>
			<path fill="none" stroke="#FFFFFF" stroke-width="11" stroke-miterlimit="10" d="M225.2,241"/>
			<path fill="none" stroke="#FFFFFF" stroke-width="11" stroke-miterlimit="10" d="M243.4,275.5v376.4c0,18.2-14.4,34.5-31.6,34.5
				h-5.7c-17.2,0-31.6-15.3-31.6-34.5V275.5H243.4z"/>
			<path fill="none" stroke="#FFFFFF" stroke-width="11" stroke-miterlimit="10" d="M390,387.5h-69.9c-14.4,0-25.9-11.5-25.9-25.9
				V253.4c0-14.4,11.5-25.9,25.9-25.9h70.9c14.4,0,25.9,11.5,25.9,25.9v108.2C416.8,376,405.3,387.5,390,387.5z"/>
			<path fill="none" stroke="#FFFFFF" stroke-width="11" stroke-miterlimit="10" d="M390,618.4h-69.9c-14.4,0-25.9-11.5-25.9-25.9
				V484.3c0-14.4,11.5-25.9,25.9-25.9h70.9c14.4,0,25.9,11.5,25.9,25.9v108.2C416.8,606.9,405.3,618.4,390,618.4z"/>
			
				<line fill="none" stroke="#FFFFFF" stroke-width="11" stroke-linecap="round" stroke-miterlimit="10" x1="449.4" y1="241" x2="642.8" y2="241"/>
			
				<line fill="none" stroke="#FFFFFF" stroke-width="11" stroke-linecap="round" stroke-miterlimit="10" x1="449.4" y1="275.5" x2="642.8" y2="275.5"/>
			
				<line fill="none" stroke="#FFFFFF" stroke-width="11" stroke-linecap="round" stroke-miterlimit="10" x1="449.4" y1="309.9" x2="642.8" y2="309.9"/>
			
				<line fill="none" stroke="#FFFFFF" stroke-width="11" stroke-linecap="round" stroke-miterlimit="10" x1="449.4" y1="344.4" x2="642.8" y2="344.4"/>
			
				<line fill="none" stroke="#FFFFFF" stroke-width="11" stroke-linecap="round" stroke-miterlimit="10" x1="449.4" y1="377.9" x2="642.8" y2="377.9"/>
			<line fill="none" x1="449.4" y1="457.4" x2="642.8" y2="457.4"/>
			
				<line fill="none" stroke="#FFFFFF" stroke-width="11" stroke-linecap="round" stroke-miterlimit="10" x1="449.4" y1="491.9" x2="642.8" y2="491.9"/>
			
				<line fill="none" stroke="#FFFFFF" stroke-width="11" stroke-linecap="round" stroke-miterlimit="10" x1="449.4" y1="526.4" x2="642.8" y2="526.4"/>
			
				<line fill="none" stroke="#FFFFFF" stroke-width="11" stroke-linecap="round" stroke-miterlimit="10" x1="449.4" y1="526.4" x2="642.8" y2="526.4"/>
			
				<line fill="none" stroke="#FFFFFF" stroke-width="11" stroke-linecap="round" stroke-miterlimit="10" x1="449.4" y1="557.1" x2="642.8" y2="557.1"/>
			
				<line fill="none" stroke="#FFFFFF" stroke-width="11" stroke-linecap="round" stroke-miterlimit="10" x1="449.4" y1="587.7" x2="642.8" y2="587.7"/>
			
				<line fill="none" stroke="#FFFFFF" stroke-width="11" stroke-linecap="round" stroke-miterlimit="10" x1="449.4" y1="617.4" x2="642.8" y2="617.4"/>
			
				<line fill="none" stroke="#FFFFFF" stroke-width="11" stroke-linecap="round" stroke-miterlimit="10" x1="449.4" y1="557.1" x2="642.8" y2="557.1"/>
		</g>
	</g>
</g>
</svg>
