<?xml version="1.0" encoding="utf-8"?>
<!-- Generator: Adobe Illustrator 18.0.0, SVG Export Plug-In . SVG Version: 6.00 Build 0)  -->
<!DOCTYPE svg PUBLIC "-//W3C//DTD SVG 1.1//EN" "http://www.w3.org/Graphics/SVG/1.1/DTD/svg11.dtd">
<svg version="1.1" id="Calque_1" xmlns="http://www.w3.org/2000/svg" xmlns:xlink="http://www.w3.org/1999/xlink" x="0px" y="0px"
	 viewBox="0 0 841.9 1190.6" enable-background="new 0 0 841.9 1190.6" xml:space="preserve">
<g id="Calque_3">
	<g>
		<circle fill="#1E1E1D" cx="420.5" cy="593.8" r="420.5"/>
		<g>
			<path fill="#FFFFFF" d="M421.4,788.3"/>
			<path fill="#FFFFFF" d="M685.8,788.3"/>
			<path fill="none" stroke="#FFFFFF" stroke-width="10" stroke-miterlimit="10" d="M635,860.1l-418.6-6.7
				c22-12.5,30.6-11.5,32.6-46V374.5c0-20.1,16.3-36.4,36.4-36.4H636c20.1,0,36.4,16.3,36.4,36.4v448.2
				C671.4,843.8,656.1,860.1,635,860.1z"/>
			<path fill="none" stroke="#FFFFFF" stroke-width="10" stroke-miterlimit="10" d="M221.2,409"/>
			<path fill="none" stroke="#FFFFFF" stroke-width="10" stroke-miterlimit="10" d="M239.4,443.5v376.4c0,18.2-14.4,34.5-31.6,34.5
				h-5.7c-17.2,0-31.6-15.3-31.6-34.5V443.5H239.4z"/>
			<path fill="none" stroke="#FFFFFF" stroke-width="10" stroke-miterlimit="10" d="M386,555.5h-69.9c-14.4,0-25.9-11.5-25.9-25.9
				V421.4c0-14.4,11.5-25.9,25.9-25.9h70.9c14.4,0,25.9,11.5,25.9,25.9v108.2C412.8,544,401.3,555.5,386,555.5z"/>
			<path fill="none" stroke="#FFFFFF" stroke-width="10" stroke-miterlimit="10" d="M386,786.4h-69.9c-14.4,0-25.9-11.5-25.9-25.9
				V652.3c0-14.4,11.5-25.9,25.9-25.9h70.9c14.4,0,25.9,11.5,25.9,25.9v108.2C412.8,774.9,401.3,786.4,386,786.4z"/>
			
				<line fill="none" stroke="#FFFFFF" stroke-width="10" stroke-linecap="round" stroke-miterlimit="10" x1="445.4" y1="409" x2="638.8" y2="409"/>
			
				<line fill="none" stroke="#FFFFFF" stroke-width="10" stroke-linecap="round" stroke-miterlimit="10" x1="445.4" y1="443.5" x2="638.8" y2="443.5"/>
			
				<line fill="none" stroke="#FFFFFF" stroke-width="10" stroke-linecap="round" stroke-miterlimit="10" x1="445.4" y1="477.9" x2="638.8" y2="477.9"/>
			
				<line fill="none" stroke="#FFFFFF" stroke-width="10" stroke-linecap="round" stroke-miterlimit="10" x1="445.4" y1="512.4" x2="638.8" y2="512.4"/>
			
				<line fill="none" stroke="#FFFFFF" stroke-width="10" stroke-linecap="round" stroke-miterlimit="10" x1="445.4" y1="545.9" x2="638.8" y2="545.9"/>
			<line fill="none" x1="445.4" y1="625.4" x2="638.8" y2="625.4"/>
			
				<line fill="none" stroke="#FFFFFF" stroke-width="10" stroke-linecap="round" stroke-miterlimit="10" x1="445.4" y1="659.9" x2="638.8" y2="659.9"/>
			
				<line fill="none" stroke="#FFFFFF" stroke-width="10" stroke-linecap="round" stroke-miterlimit="10" x1="445.4" y1="694.4" x2="638.8" y2="694.4"/>
			
				<line fill="none" stroke="#FFFFFF" stroke-width="10" stroke-linecap="round" stroke-miterlimit="10" x1="445.4" y1="694.4" x2="638.8" y2="694.4"/>
			
				<line fill="none" stroke="#FFFFFF" stroke-width="10" stroke-linecap="round" stroke-miterlimit="10" x1="445.4" y1="725.1" x2="638.8" y2="725.1"/>
			
				<line fill="none" stroke="#FFFFFF" stroke-width="10" stroke-linecap="round" stroke-miterlimit="10" x1="445.4" y1="755.7" x2="638.8" y2="755.7"/>
			
				<line fill="none" stroke="#FFFFFF" stroke-width="10" stroke-linecap="round" stroke-miterlimit="10" x1="445.4" y1="785.4" x2="638.8" y2="785.4"/>
			
				<line fill="none" stroke="#FFFFFF" stroke-width="10" stroke-linecap="round" stroke-miterlimit="10" x1="445.4" y1="725.1" x2="638.8" y2="725.1"/>
		</g>
	</g>
</g>
</svg>
