<?xml version="1.0" encoding="utf-8"?>
<!-- Generator: Adobe Illustrator 18.0.0, SVG Export Plug-In . SVG Version: 6.00 Build 0)  -->
<!DOCTYPE svg PUBLIC "-//W3C//DTD SVG 1.1//EN" "http://www.w3.org/Graphics/SVG/1.1/DTD/svg11.dtd">
<svg version="1.1" id="Calque_1" xmlns="http://www.w3.org/2000/svg" xmlns:xlink="http://www.w3.org/1999/xlink" x="0px" y="0px"
	 viewBox="0 0 841.9 1190.6" enable-background="new 0 0 841.9 1190.6" xml:space="preserve">
<g id="Calque_1_1_" display="none">
	<g display="inline">
		<circle fill="#112A1B" cx="332.4" cy="492.3" r="31.6"/>
		<g>
			<path fill="#FFFFFF" d="M345.8,508.6h-23c-4.8,0-7.7-3.8-7.7-7.7v-15.3c0-4.8,3.8-7.7,7.7-7.7h23c4.8,0,7.7,3.8,7.7,7.7v15.3
				C352.5,504.8,349.6,508.6,345.8,508.6z"/>
			<path fill="#FFFFFF" d="M325.6,478.9l1-2.9c0-1,1-1,1-1h5.7c1,0,1,1,1,1l1,2.9H325.6z"/>
			<circle fill="#112A1B" cx="333.3" cy="493.3" r="7.7"/>
			<circle fill="#112A1B" cx="345.8" cy="483.7" r="1"/>
		</g>
	</g>
</g>
<g id="Calque_2" display="none">
	<circle display="inline" fill="#112A1B" cx="246.1" cy="433.9" r="31.6"/>
	<g display="inline">
		<ellipse fill="#FFFFFF" cx="246.1" cy="426.2" rx="6.7" ry="6.7"/>
		<path fill="#FFFFFF" d="M236.6,443.5c0-5.7,4.8-10.5,9.6-10.5c4.8,0,9.6,4.8,9.6,10.5H236.6z"/>
		<rect x="229.9" y="410.9" fill="none" stroke="#FFFFFF" stroke-width="2" stroke-miterlimit="10" width="32.6" height="46.9"/>
		
			<line fill="none" stroke="#FFFFFF" stroke-width="1.5865" stroke-linecap="round" stroke-miterlimit="10" x1="227" y1="413.8" x2="232.7" y2="413.8"/>
		
			<line fill="none" stroke="#FFFFFF" stroke-width="1.5865" stroke-linecap="round" stroke-miterlimit="10" x1="227" y1="419.5" x2="232.7" y2="419.5"/>
		
			<line fill="none" stroke="#FFFFFF" stroke-width="1.5865" stroke-linecap="round" stroke-miterlimit="10" x1="227" y1="424.3" x2="232.7" y2="424.3"/>
		
			<line fill="none" stroke="#FFFFFF" stroke-width="1.5865" stroke-linecap="round" stroke-miterlimit="10" x1="227" y1="430.1" x2="232.7" y2="430.1"/>
		
			<line fill="none" stroke="#FFFFFF" stroke-width="1.5865" stroke-linecap="round" stroke-miterlimit="10" x1="227" y1="435.8" x2="232.7" y2="435.8"/>
		
			<line fill="none" stroke="#FFFFFF" stroke-width="1.5865" stroke-linecap="round" stroke-miterlimit="10" x1="227" y1="441.6" x2="232.7" y2="441.6"/>
		
			<line fill="none" stroke="#FFFFFF" stroke-width="1.5865" stroke-linecap="round" stroke-miterlimit="10" x1="227" y1="446.3" x2="232.7" y2="446.3"/>
		
			<line fill="none" stroke="#FFFFFF" stroke-width="1.5865" stroke-linecap="round" stroke-miterlimit="10" x1="227" y1="452.1" x2="232.7" y2="452.1"/>
		<path fill="none" stroke="#FFFFFF" stroke-width="1.5865" stroke-linecap="round" stroke-miterlimit="10" d="M264.3,413.8"/>
		<path fill="none" stroke="#FFFFFF" stroke-width="1.5865" stroke-linecap="round" stroke-miterlimit="10" d="M264.3,417.6"/>
		<path fill="#FFFFFF" d="M263.4,409.9L263.4,409.9c1,0,1.9,1,1.9,1.9v3.8c0,1-1,1.9-1.9,1.9l0,0V409.9z"/>
		<path fill="#FFFFFF" d="M263.4,416.6L263.4,416.6c1,0,1.9,1,1.9,1.9v3.8c0,1-1,1.9-1.9,1.9l0,0V416.6z"/>
		<path fill="#FFFFFF" d="M263.4,423.4L263.4,423.4c1,0,1.9,1,1.9,1.9v3.8c0,1-1,1.9-1.9,1.9l0,0V423.4z"/>
		<path fill="#FFFFFF" d="M263.4,429.1L263.4,429.1c1,0,1.9,1,1.9,1.9v3.8c0,1-1,1.9-1.9,1.9l0,0V429.1z"/>
	</g>
</g>
<g id="Calque_4" display="none">
	<g display="inline">
		<circle fill="#0AAD97" cx="466.4" cy="517.2" r="31.6"/>
		<g>
			
				<rect x="449.2" y="498.1" fill="none" stroke="#FFFFFF" stroke-width="3.5759" stroke-miterlimit="10" width="34.5" height="37.4"/>
			
				<line fill="none" stroke="#FFFFFF" stroke-width="4" stroke-linecap="round" stroke-miterlimit="10" x1="454.9" y1="492.3" x2="454.9" y2="502.8"/>
			
				<line fill="none" stroke="#FFFFFF" stroke-width="4" stroke-linecap="round" stroke-miterlimit="10" x1="477.9" y1="492.3" x2="477.9" y2="502.8"/>
			<path fill="none" stroke="#FFFFFF" stroke-width="2" stroke-miterlimit="10" d="M456.9,513.4H453c0,0-1,0-1-1v-3.8c0,0,0-1,1-1
				h3.8c0,0,1,0,1,1L456.9,513.4C456.9,512.4,456.9,513.4,456.9,513.4z"/>
			<path fill="none" stroke="#FFFFFF" stroke-width="2" stroke-miterlimit="10" d="M464.5,513.4h-3.8c0,0-1,0-1-1v-3.8c0,0,0-1,1-1
				h3.8c0,0,1,0,1,1L464.5,513.4C465.5,512.4,464.5,513.4,464.5,513.4z"/>
			<path fill="none" stroke="#FFFFFF" stroke-width="2" stroke-miterlimit="10" d="M472.2,513.4h-3.8c0,0-1,0-1-1v-3.8c0,0,0-1,1-1
				h3.8c0,0,1,0,1,1L472.2,513.4C473.1,512.4,473.1,513.4,472.2,513.4z"/>
			<path fill="none" stroke="#FFFFFF" stroke-width="2" stroke-miterlimit="10" d="M479.8,513.4H476c0,0-1,0-1-1v-3.8c0,0,0-1,1-1
				h3.8c0,0,1,0,1,1L479.8,513.4C480.8,512.4,480.8,513.4,479.8,513.4z"/>
			<path fill="none" stroke="#FFFFFF" stroke-width="2" stroke-miterlimit="10" d="M456.9,520.1H453c0,0-1,0-1-1v-3.8c0,0,0-1,1-1
				h3.8c0,0,1,0,1,1L456.9,520.1L456.9,520.1z"/>
			<path fill="none" stroke="#FFFFFF" stroke-width="2" stroke-miterlimit="10" d="M464.5,520.1h-3.8c0,0-1,0-1-1v-3.8c0,0,0-1,1-1
				h3.8c0,0,1,0,1,1L464.5,520.1C465.5,520.1,464.5,520.1,464.5,520.1z"/>
			<path fill="none" stroke="#FFFFFF" stroke-width="2" stroke-miterlimit="10" d="M472.2,520.1h-3.8c0,0-1,0-1-1v-3.8c0,0,0-1,1-1
				h3.8c0,0,1,0,1,1L472.2,520.1C473.1,520.1,473.1,520.1,472.2,520.1z"/>
			<path fill="none" stroke="#FFFFFF" stroke-width="2" stroke-miterlimit="10" d="M479.8,520.1H476c0,0-1,0-1-1v-3.8c0,0,0-1,1-1
				h3.8c0,0,1,0,1,1L479.8,520.1C480.8,520.1,480.8,520.1,479.8,520.1z"/>
			<path fill="none" stroke="#FFFFFF" stroke-width="2" stroke-miterlimit="10" d="M456.9,527.8H453c0,0-1,0-1-1V523c0,0,0-1,1-1
				h3.8c0,0,1,0,1,1L456.9,527.8L456.9,527.8z"/>
			<path fill="none" stroke="#FFFFFF" stroke-width="2" stroke-miterlimit="10" d="M464.5,527.8h-3.8c0,0-1,0-1-1V523c0,0,0-1,1-1
				h3.8c0,0,1,0,1,1L464.5,527.8C465.5,527.8,464.5,527.8,464.5,527.8z"/>
			<path fill="none" stroke="#FFFFFF" stroke-width="2" stroke-miterlimit="10" d="M472.2,527.8h-3.8c0,0-1,0-1-1V523c0,0,0-1,1-1
				h3.8c0,0,1,0,1,1L472.2,527.8C473.1,527.8,473.1,527.8,472.2,527.8z"/>
			<path fill="none" stroke="#FFFFFF" stroke-width="2" stroke-miterlimit="10" d="M479.8,527.8H476c0,0-1,0-1-1V523c0,0,0-1,1-1
				h3.8c0,0,1,0,1,1L479.8,527.8C480.8,527.8,480.8,527.8,479.8,527.8z"/>
		</g>
	</g>
</g>
<g>
	<circle fill="#1E1E1D" cx="421.4" cy="594.8" r="420.5"/>
	<g>
		<ellipse fill="#FFFFFF" cx="423.3" cy="499" rx="89.1" ry="88.1"/>
		<path fill="#FFFFFF" d="M301.7,722.2c0-74.7,56.5-134.1,127.4-134.1s127.4,60.3,127.4,134.1H301.7z"/>
		<rect x="218.4" y="287.3" fill="none" stroke="#FFFFFF" stroke-width="11" stroke-miterlimit="10" width="428.1" height="615.9"/>
		
			<line fill="none" stroke="#FFFFFF" stroke-width="11" stroke-linecap="round" stroke-miterlimit="10" x1="184.9" y1="334.3" x2="252.9" y2="334.3"/>
		
			<line fill="none" stroke="#FFFFFF" stroke-width="11" stroke-linecap="round" stroke-miterlimit="10" x1="184.9" y1="405.2" x2="252.9" y2="405.2"/>
		
			<line fill="none" stroke="#FFFFFF" stroke-width="11" stroke-linecap="round" stroke-miterlimit="10" x1="184.9" y1="477" x2="252.9" y2="477"/>
		
			<line fill="none" stroke="#FFFFFF" stroke-width="11" stroke-linecap="round" stroke-miterlimit="10" x1="184.9" y1="548.8" x2="252.9" y2="548.8"/>
		
			<line fill="none" stroke="#FFFFFF" stroke-width="11" stroke-linecap="round" stroke-miterlimit="10" x1="184.9" y1="619.7" x2="252.9" y2="619.7"/>
		
			<line fill="none" stroke="#FFFFFF" stroke-width="11" stroke-linecap="round" stroke-miterlimit="10" x1="184.9" y1="690.6" x2="252.9" y2="690.6"/>
		
			<line fill="none" stroke="#FFFFFF" stroke-width="11" stroke-linecap="round" stroke-miterlimit="10" x1="184.9" y1="762.4" x2="252.9" y2="762.4"/>
		
			<line fill="none" stroke="#FFFFFF" stroke-width="11" stroke-linecap="round" stroke-miterlimit="10" x1="184.9" y1="833.3" x2="252.9" y2="833.3"/>
		<path fill="none" stroke="#FFFFFF" stroke-width="11" stroke-linecap="round" stroke-miterlimit="10" d="M666.6,327.6"/>
		<path fill="none" stroke="#FFFFFF" stroke-width="11" stroke-linecap="round" stroke-miterlimit="10" d="M666.6,374.5"/>
		<path fill="#FFFFFF" d="M658,283.5L658,283.5c10.5,0,18.2,8.6,18.2,18.2v46.9c0,10.5-8.6,18.2-18.2,18.2l0,0V283.5z"/>
		<path fill="#FFFFFF" d="M658,366.8L658,366.8c10.5,0,18.2,8.6,18.2,18.2V432c0,10.5-8.6,18.2-18.2,18.2l0,0V366.8z"/>
		<path fill="#FFFFFF" d="M658,452.1L658,452.1c10.5,0,18.2,8.6,18.2,18.2v46.9c0,10.5-8.6,18.2-18.2,18.2l0,0V452.1z"/>
		<path fill="#FFFFFF" d="M658,535.4L658,535.4c10.5,0,18.2,8.6,18.2,18.2v46.9c0,10.5-8.6,18.2-18.2,18.2l0,0V535.4z"/>
	</g>
</g>
</svg>
