<?xml version="1.0" encoding="utf-8"?>
<!-- Generator: Adobe Illustrator 18.0.0, SVG Export Plug-In . SVG Version: 6.00 Build 0)  -->
<!DOCTYPE svg PUBLIC "-//W3C//DTD SVG 1.1//EN" "http://www.w3.org/Graphics/SVG/1.1/DTD/svg11.dtd">
<svg version="1.1" id="Calque_1" xmlns="http://www.w3.org/2000/svg" xmlns:xlink="http://www.w3.org/1999/xlink" x="0px" y="0px"
	 viewBox="0 0 850.4 850.4" enable-background="new 0 0 850.4 850.4" xml:space="preserve">
<g>
	<circle fill="#1E1E1D" cx="425.4" cy="425.8" r="420.5"/>
	<g>
		<ellipse fill="#FFFFFF" cx="427.3" cy="330" rx="89.1" ry="88.1"/>
		<path fill="#FFFFFF" d="M305.7,553.2c0-74.7,56.5-134.1,127.4-134.1s127.4,60.3,127.4,134.1H305.7z"/>
		<rect x="222.4" y="118.3" fill="none" stroke="#FFFFFF" stroke-width="11" stroke-miterlimit="10" width="428.1" height="615.9"/>
		
			<line fill="none" stroke="#FFFFFF" stroke-width="11" stroke-linecap="round" stroke-miterlimit="10" x1="188.9" y1="165.3" x2="256.9" y2="165.3"/>
		
			<line fill="none" stroke="#FFFFFF" stroke-width="11" stroke-linecap="round" stroke-miterlimit="10" x1="188.9" y1="236.2" x2="256.9" y2="236.2"/>
		
			<line fill="none" stroke="#FFFFFF" stroke-width="11" stroke-linecap="round" stroke-miterlimit="10" x1="188.9" y1="308" x2="256.9" y2="308"/>
		
			<line fill="none" stroke="#FFFFFF" stroke-width="11" stroke-linecap="round" stroke-miterlimit="10" x1="188.9" y1="379.8" x2="256.9" y2="379.8"/>
		
			<line fill="none" stroke="#FFFFFF" stroke-width="11" stroke-linecap="round" stroke-miterlimit="10" x1="188.9" y1="450.7" x2="256.9" y2="450.7"/>
		
			<line fill="none" stroke="#FFFFFF" stroke-width="11" stroke-linecap="round" stroke-miterlimit="10" x1="188.9" y1="521.6" x2="256.9" y2="521.6"/>
		
			<line fill="none" stroke="#FFFFFF" stroke-width="11" stroke-linecap="round" stroke-miterlimit="10" x1="188.9" y1="593.4" x2="256.9" y2="593.4"/>
		
			<line fill="none" stroke="#FFFFFF" stroke-width="11" stroke-linecap="round" stroke-miterlimit="10" x1="188.9" y1="664.3" x2="256.9" y2="664.3"/>
		<path fill="none" stroke="#FFFFFF" stroke-width="11" stroke-linecap="round" stroke-miterlimit="10" d="M670.6,158.6"/>
		<path fill="none" stroke="#FFFFFF" stroke-width="11" stroke-linecap="round" stroke-miterlimit="10" d="M670.6,205.5"/>
		<path fill="#FFFFFF" d="M662,114.5L662,114.5c10.5,0,18.2,8.6,18.2,18.2v46.9c0,10.5-8.6,18.2-18.2,18.2l0,0V114.5z"/>
		<path fill="#FFFFFF" d="M662,197.8L662,197.8c10.5,0,18.2,8.6,18.2,18.2V263c0,10.5-8.6,18.2-18.2,18.2l0,0V197.8z"/>
		<path fill="#FFFFFF" d="M662,283.1L662,283.1c10.5,0,18.2,8.6,18.2,18.2v46.9c0,10.5-8.6,18.2-18.2,18.2l0,0V283.1z"/>
		<path fill="#FFFFFF" d="M662,366.4L662,366.4c10.5,0,18.2,8.6,18.2,18.2v46.9c0,10.5-8.6,18.2-18.2,18.2l0,0V366.4z"/>
	</g>
</g>
</svg>
