<?xml version="1.0" encoding="utf-8"?>
<!-- Generator: Adobe Illustrator 18.0.0, SVG Export Plug-In . SVG Version: 6.00 Build 0)  -->
<!DOCTYPE svg PUBLIC "-//W3C//DTD SVG 1.1//EN" "http://www.w3.org/Graphics/SVG/1.1/DTD/svg11.dtd">
<svg version="1.1" id="Calque_1" xmlns="http://www.w3.org/2000/svg" xmlns:xlink="http://www.w3.org/1999/xlink" x="0px" y="0px"
	 viewBox="0 0 850.4 850.4" enable-background="new 0 0 850.4 850.4" xml:space="preserve">
<g id="Calque_1_1_">
	<g>
		<circle fill="#1E1E1D" cx="425" cy="425.8" r="420.5"/>
		<g>
			<path fill="#FFFFFF" d="M588.8,633.6H282.3c-56.5,0-102.5-46-102.5-102.5V331c0-56.5,46-102.5,102.5-102.5h306.5
				c56.5,0,102.5,46,102.5,102.5v200.2C691.3,587.7,644.4,633.6,588.8,633.6z"/>
			<path fill="#FFFFFF" d="M336,238.1l6.7-42.1c0-9.6,7.7-16.3,16.3-16.3h77.6c9.6,0,16.3,7.7,16.3,16.3l7.7,42.1H336z"/>
			<circle fill="#1E1E1D" cx="435.6" cy="431.5" r="92.9"/>
			<circle fill="#1E1E1D" cx="596.5" cy="297.5" r="16.3"/>
		</g>
	</g>
</g>
</svg>
