<?xml version="1.0" encoding="utf-8"?>
<!-- Generator: Adobe Illustrator 18.0.0, SVG Export Plug-In . SVG Version: 6.00 Build 0)  -->
<!DOCTYPE svg PUBLIC "-//W3C//DTD SVG 1.1//EN" "http://www.w3.org/Graphics/SVG/1.1/DTD/svg11.dtd">
<svg version="1.1" id="Calque_1" xmlns="http://www.w3.org/2000/svg" xmlns:xlink="http://www.w3.org/1999/xlink" x="0px" y="0px"
	 viewBox="0 0 841.9 1190.6" enable-background="new 0 0 841.9 1190.6" xml:space="preserve">
<g id="Calque_1_1_">
	<g>
		<circle fill="#1E1E1D" cx="421.4" cy="594.8" r="420.5"/>
		<g>
			<path fill="#FFFFFF" d="M585.2,802.6H278.7c-56.5,0-102.5-46-102.5-102.5V500c0-56.5,46-102.5,102.5-102.5h306.5
				c56.5,0,102.5,46,102.5,102.5v200.2C687.7,756.7,640.8,802.6,585.2,802.6z"/>
			<path fill="#FFFFFF" d="M332.4,407.1l6.7-42.1c0-9.6,7.7-16.3,16.3-16.3h77.6c9.6,0,16.3,7.7,16.3,16.3l7.7,42.1H332.4z"/>
			<circle fill="#1E1E1D" cx="432" cy="600.5" r="92.9"/>
			<circle fill="#1E1E1D" cx="592.9" cy="466.5" r="16.3"/>
		</g>
	</g>
</g>
<g id="Calque_2" display="none">
	<circle display="inline" fill="#0AAD97" cx="245.2" cy="433.9" r="31.6"/>
	<g display="inline">
		<ellipse fill="#FFFFFF" cx="245.2" cy="426.2" rx="6.7" ry="6.7"/>
		<path fill="#FFFFFF" d="M236.6,443.5c0-5.7,4.8-10.5,9.6-10.5c5.7,0,9.6,4.8,9.6,10.5H236.6z"/>
		<rect x="229.9" y="409.9" fill="none" stroke="#FFFFFF" stroke-width="2" stroke-miterlimit="10" width="32.6" height="46.9"/>
		
			<line fill="none" stroke="#FFFFFF" stroke-width="1.5865" stroke-linecap="round" stroke-miterlimit="10" x1="227" y1="413.8" x2="232.7" y2="413.8"/>
		
			<line fill="none" stroke="#FFFFFF" stroke-width="1.5865" stroke-linecap="round" stroke-miterlimit="10" x1="227" y1="419.5" x2="232.7" y2="419.5"/>
		
			<line fill="none" stroke="#FFFFFF" stroke-width="1.5865" stroke-linecap="round" stroke-miterlimit="10" x1="227" y1="424.3" x2="232.7" y2="424.3"/>
		
			<line fill="none" stroke="#FFFFFF" stroke-width="1.5865" stroke-linecap="round" stroke-miterlimit="10" x1="227" y1="430.1" x2="232.7" y2="430.1"/>
		
			<line fill="none" stroke="#FFFFFF" stroke-width="1.5865" stroke-linecap="round" stroke-miterlimit="10" x1="227" y1="435.8" x2="232.7" y2="435.8"/>
		
			<line fill="none" stroke="#FFFFFF" stroke-width="1.5865" stroke-linecap="round" stroke-miterlimit="10" x1="227" y1="440.6" x2="232.7" y2="440.6"/>
		
			<line fill="none" stroke="#FFFFFF" stroke-width="1.5865" stroke-linecap="round" stroke-miterlimit="10" x1="227" y1="446.3" x2="232.7" y2="446.3"/>
		
			<line fill="none" stroke="#FFFFFF" stroke-width="1.5865" stroke-linecap="round" stroke-miterlimit="10" x1="227" y1="452.1" x2="232.7" y2="452.1"/>
		<path fill="none" stroke="#FFFFFF" stroke-width="1.5865" stroke-linecap="round" stroke-miterlimit="10" d="M264.3,413.8"/>
		<path fill="none" stroke="#FFFFFF" stroke-width="1.5865" stroke-linecap="round" stroke-miterlimit="10" d="M264.3,416.6"/>
		<path fill="#FFFFFF" d="M263.4,409.9L263.4,409.9c1,0,1,1,1,1v3.8c0,1-1,1-1,1l0,0V409.9z"/>
		<path fill="#FFFFFF" d="M263.4,416.6L263.4,416.6c1,0,1,1,1,1v3.8c0,1-1,1-1,1l0,0V416.6z"/>
		<path fill="#FFFFFF" d="M263.4,422.4L263.4,422.4c1,0,1,1,1,1v3.8c0,1-1,1-1,1l0,0V422.4z"/>
		<path fill="#FFFFFF" d="M263.4,429.1L263.4,429.1c1,0,1,1,1,1v3.8c0,1-1,1-1,1l0,0V429.1z"/>
	</g>
</g>
<g id="Calque_3" display="none">
	<g display="inline">
		<circle fill="#0AAD97" cx="466.4" cy="674.3" r="31.6"/>
		<g>
			<path fill="#FFFFFF" d="M466.4,689.6"/>
			<path fill="#FFFFFF" d="M486.6,689.6"/>
			<path fill="none" stroke="#FFFFFF" stroke-width="2" stroke-miterlimit="10" d="M482.7,694.4h-32.6c1.9-1,1.9-1,2.9-3.8V658
				c0-1.9,1-2.9,2.9-2.9h26.8c1.9,0,2.9,1,2.9,2.9v33.5C485.6,693.4,483.7,694.4,482.7,694.4z"/>
			<path fill="none" stroke="#FFFFFF" stroke-width="0.6531" stroke-miterlimit="10" d="M451.1,660.9"/>
			<path fill="none" stroke="#FFFFFF" stroke-width="2" stroke-miterlimit="10" d="M452.1,662.8v28.7c0,1-1,2.9-2.9,2.9l0,0
				c-1,0-2.9-1-2.9-2.9v-28.7H452.1z"/>
			<path fill="none" stroke="#FFFFFF" stroke-width="1.63" stroke-miterlimit="10" d="M463.6,671.4h-5.7c-1,0-1.9-1-1.9-1.9v-8.6
				c0-1,1-1.9,1.9-1.9h5.7c1,0,1.9,1,1.9,1.9v8.6C465.5,670.5,464.5,671.4,463.6,671.4z"/>
			<path fill="none" stroke="#FFFFFF" stroke-width="1.63" stroke-miterlimit="10" d="M463.6,689.6h-5.7c-1,0-1.9-1-1.9-1.9v-8.6
				c0-1,1-1.9,1.9-1.9h5.7c1,0,1.9,1,1.9,1.9v8.6C465.5,688.7,464.5,689.6,463.6,689.6z"/>
			
				<line fill="none" stroke="#FFFFFF" stroke-width="1.3088" stroke-linecap="round" stroke-miterlimit="10" x1="468.4" y1="660.9" x2="482.7" y2="660.9"/>
			
				<line fill="none" stroke="#FFFFFF" stroke-width="1.3088" stroke-linecap="round" stroke-miterlimit="10" x1="468.4" y1="662.8" x2="482.7" y2="662.8"/>
			
				<line fill="none" stroke="#FFFFFF" stroke-width="1.3088" stroke-linecap="round" stroke-miterlimit="10" x1="468.4" y1="665.7" x2="482.7" y2="665.7"/>
			
				<line fill="none" stroke="#FFFFFF" stroke-width="1.3088" stroke-linecap="round" stroke-miterlimit="10" x1="468.4" y1="668.5" x2="482.7" y2="668.5"/>
			
				<line fill="none" stroke="#FFFFFF" stroke-width="1.3088" stroke-linecap="round" stroke-miterlimit="10" x1="468.4" y1="671.4" x2="482.7" y2="671.4"/>
			
				<line fill="none" stroke="#FFFFFF" stroke-width="1.3088" stroke-linecap="round" stroke-miterlimit="10" x1="468.4" y1="677.2" x2="482.7" y2="677.2"/>
			
				<line fill="none" stroke="#FFFFFF" stroke-width="1.3088" stroke-linecap="round" stroke-miterlimit="10" x1="468.4" y1="680" x2="482.7" y2="680"/>
			
				<line fill="none" stroke="#FFFFFF" stroke-width="1.3088" stroke-linecap="round" stroke-miterlimit="10" x1="468.4" y1="682" x2="482.7" y2="682"/>
			
				<line fill="none" stroke="#FFFFFF" stroke-width="1.3088" stroke-linecap="round" stroke-miterlimit="10" x1="468.4" y1="682" x2="482.7" y2="682"/>
			
				<line fill="none" stroke="#FFFFFF" stroke-width="1.3088" stroke-linecap="round" stroke-miterlimit="10" x1="468.4" y1="684.8" x2="482.7" y2="684.8"/>
			
				<line fill="none" stroke="#FFFFFF" stroke-width="1.3088" stroke-linecap="round" stroke-miterlimit="10" x1="468.4" y1="686.7" x2="482.7" y2="686.7"/>
			
				<line fill="none" stroke="#FFFFFF" stroke-width="1.3088" stroke-linecap="round" stroke-miterlimit="10" x1="468.4" y1="688.7" x2="482.7" y2="688.7"/>
			
				<line fill="none" stroke="#FFFFFF" stroke-width="1.3088" stroke-linecap="round" stroke-miterlimit="10" x1="468.4" y1="684.8" x2="482.7" y2="684.8"/>
		</g>
	</g>
</g>
<g id="Calque_4" display="none">
	<g display="inline">
		<circle fill="#0AAD97" cx="466.4" cy="516.3" r="31.6"/>
		<g>
			
				<rect x="449.2" y="498.1" fill="none" stroke="#FFFFFF" stroke-width="3.5759" stroke-miterlimit="10" width="34.5" height="37.4"/>
			
				<line fill="none" stroke="#FFFFFF" stroke-width="4" stroke-linecap="round" stroke-miterlimit="10" x1="455.9" y1="492.3" x2="455.9" y2="502.8"/>
			
				<line fill="none" stroke="#FFFFFF" stroke-width="4" stroke-linecap="round" stroke-miterlimit="10" x1="477" y1="492.3" x2="477" y2="502.8"/>
			<path fill="none" stroke="#FFFFFF" stroke-width="2" stroke-miterlimit="10" d="M456.9,512.4H453c0,0-1,0-1-1v-3.8c0,0,0-1,1-1
				h3.8c0,0,1,0,1,1L456.9,512.4L456.9,512.4z"/>
			<path fill="none" stroke="#FFFFFF" stroke-width="2" stroke-miterlimit="10" d="M464.5,512.4h-3.8c0,0-1,0-1-1v-3.8c0,0,0-1,1-1
				h3.8c0,0,1,0,1,1L464.5,512.4L464.5,512.4z"/>
			<path fill="none" stroke="#FFFFFF" stroke-width="2" stroke-miterlimit="10" d="M472.2,512.4h-3.8c0,0-1,0-1-1v-3.8c0,0,0-1,1-1
				h3.8c0,0,1,0,1,1L472.2,512.4L472.2,512.4z"/>
			<path fill="none" stroke="#FFFFFF" stroke-width="2" stroke-miterlimit="10" d="M479.8,512.4H476c0,0-1,0-1-1v-3.8c0,0,0-1,1-1
				h3.8c0,0,1,0,1,1L479.8,512.4L479.8,512.4z"/>
			<path fill="none" stroke="#FFFFFF" stroke-width="2" stroke-miterlimit="10" d="M456.9,520.1H453c0,0-1,0-1-1v-3.8c0,0,0-1,1-1
				h3.8c0,0,1,0,1,1L456.9,520.1L456.9,520.1z"/>
			<path fill="none" stroke="#FFFFFF" stroke-width="2" stroke-miterlimit="10" d="M464.5,520.1h-3.8c0,0-1,0-1-1v-3.8c0,0,0-1,1-1
				h3.8c0,0,1,0,1,1L464.5,520.1L464.5,520.1z"/>
			<path fill="none" stroke="#FFFFFF" stroke-width="2" stroke-miterlimit="10" d="M472.2,520.1h-3.8c0,0-1,0-1-1v-3.8c0,0,0-1,1-1
				h3.8c0,0,1,0,1,1L472.2,520.1L472.2,520.1z"/>
			<path fill="none" stroke="#FFFFFF" stroke-width="2" stroke-miterlimit="10" d="M479.8,520.1H476c0,0-1,0-1-1v-3.8c0,0,0-1,1-1
				h3.8c0,0,1,0,1,1L479.8,520.1L479.8,520.1z"/>
			<path fill="none" stroke="#FFFFFF" stroke-width="2" stroke-miterlimit="10" d="M456.9,527.8H453c0,0-1,0-1-1V523c0,0,0-1,1-1
				h3.8c0,0,1,0,1,1L456.9,527.8L456.9,527.8z"/>
			<path fill="none" stroke="#FFFFFF" stroke-width="2" stroke-miterlimit="10" d="M464.5,527.8h-3.8c0,0-1,0-1-1V523c0,0,0-1,1-1
				h3.8c0,0,1,0,1,1L464.5,527.8L464.5,527.8z"/>
			<path fill="none" stroke="#FFFFFF" stroke-width="2" stroke-miterlimit="10" d="M472.2,527.8h-3.8c0,0-1,0-1-1V523c0,0,0-1,1-1
				h3.8c0,0,1,0,1,1L472.2,527.8L472.2,527.8z"/>
			<path fill="none" stroke="#FFFFFF" stroke-width="2" stroke-miterlimit="10" d="M479.8,527.8H476c0,0-1,0-1-1V523c0,0,0-1,1-1
				h3.8c0,0,1,0,1,1L479.8,527.8L479.8,527.8z"/>
		</g>
	</g>
</g>
</svg>
