<?xml version="1.0" encoding="utf-8"?>
<!-- Generator: Adobe Illustrator 18.0.0, SVG Export Plug-In . SVG Version: 6.00 Build 0)  -->
<!DOCTYPE svg PUBLIC "-//W3C//DTD SVG 1.1//EN" "http://www.w3.org/Graphics/SVG/1.1/DTD/svg11.dtd">
<svg version="1.1" id="Calque_1" xmlns="http://www.w3.org/2000/svg" xmlns:xlink="http://www.w3.org/1999/xlink" x="0px" y="0px"
	 viewBox="0 0 87.9 87.9" enable-background="new 0 0 87.9 87.9" xml:space="preserve">
<g id="Calque_1_1_">
	<g>
		<circle fill="#F06825" cx="44.9" cy="43.9" r="43.9"/>
		<g>
			<path fill="#FFFFFF" d="M62,65.6H30c-5.9,0-10.7-4.8-10.7-10.7V34c0-5.9,4.8-10.7,10.7-10.7h32c5.9,0,10.7,4.8,10.7,10.7v20.9
				C72.7,60.8,67.8,65.6,62,65.6z"/>
			<path fill="#FFFFFF" d="M35.6,24.3l0.7-4.4c0-1,0.8-1.7,1.7-1.7h8.1c1,0,1.7,0.8,1.7,1.7l0.8,4.4H35.6z"/>
			<circle fill="#F06825" cx="46" cy="44.5" r="9.7"/>
			<circle fill="#F06825" cx="62.8" cy="30.5" r="1.7"/>
		</g>
	</g>
</g>
<g id="Calque_2" display="none">
	<circle display="inline" fill="#0AAD97" cx="25.6" cy="27.1" r="3.3"/>
	<g display="inline">
		<ellipse fill="#FFFFFF" cx="25.6" cy="26.3" rx="0.7" ry="0.7"/>
		<path fill="#FFFFFF" d="M24.7,28.1c0-0.6,0.5-1.1,1-1.1c0.6,0,1,0.5,1,1.1H24.7z"/>
		<rect x="24" y="24.6" fill="none" stroke="#FFFFFF" stroke-width="2" stroke-miterlimit="10" width="3.4" height="4.9"/>
		
			<line fill="none" stroke="#FFFFFF" stroke-width="1.5865" stroke-linecap="round" stroke-miterlimit="10" x1="23.7" y1="25" x2="24.3" y2="25"/>
		
			<line fill="none" stroke="#FFFFFF" stroke-width="1.5865" stroke-linecap="round" stroke-miterlimit="10" x1="23.7" y1="25.6" x2="24.3" y2="25.6"/>
		
			<line fill="none" stroke="#FFFFFF" stroke-width="1.5865" stroke-linecap="round" stroke-miterlimit="10" x1="23.7" y1="26.1" x2="24.3" y2="26.1"/>
		
			<line fill="none" stroke="#FFFFFF" stroke-width="1.5865" stroke-linecap="round" stroke-miterlimit="10" x1="23.7" y1="26.7" x2="24.3" y2="26.7"/>
		
			<line fill="none" stroke="#FFFFFF" stroke-width="1.5865" stroke-linecap="round" stroke-miterlimit="10" x1="23.7" y1="27.3" x2="24.3" y2="27.3"/>
		
			<line fill="none" stroke="#FFFFFF" stroke-width="1.5865" stroke-linecap="round" stroke-miterlimit="10" x1="23.7" y1="27.8" x2="24.3" y2="27.8"/>
		
			<line fill="none" stroke="#FFFFFF" stroke-width="1.5865" stroke-linecap="round" stroke-miterlimit="10" x1="23.7" y1="28.4" x2="24.3" y2="28.4"/>
		
			<line fill="none" stroke="#FFFFFF" stroke-width="1.5865" stroke-linecap="round" stroke-miterlimit="10" x1="23.7" y1="29" x2="24.3" y2="29"/>
		<path fill="none" stroke="#FFFFFF" stroke-width="1.5865" stroke-linecap="round" stroke-miterlimit="10" d="M27.6,25"/>
		<path fill="none" stroke="#FFFFFF" stroke-width="1.5865" stroke-linecap="round" stroke-miterlimit="10" d="M27.6,25.3"/>
		<path fill="#FFFFFF" d="M27.5,24.6L27.5,24.6c0.1,0,0.1,0.1,0.1,0.1v0.4c0,0.1-0.1,0.1-0.1,0.1l0,0V24.6z"/>
		<path fill="#FFFFFF" d="M27.5,25.3L27.5,25.3c0.1,0,0.1,0.1,0.1,0.1v0.4c0,0.1-0.1,0.1-0.1,0.1l0,0V25.3z"/>
		<path fill="#FFFFFF" d="M27.5,25.9L27.5,25.9c0.1,0,0.1,0.1,0.1,0.1v0.4c0,0.1-0.1,0.1-0.1,0.1l0,0V25.9z"/>
		<path fill="#FFFFFF" d="M27.5,26.6L27.5,26.6c0.1,0,0.1,0.1,0.1,0.1v0.4c0,0.1-0.1,0.1-0.1,0.1l0,0V26.6z"/>
	</g>
</g>
<g id="Calque_3" display="none">
	<g display="inline">
		<circle fill="#0AAD97" cx="48.7" cy="52.2" r="3.3"/>
		<g>
			<path fill="#FFFFFF" d="M48.7,53.8"/>
			<path fill="#FFFFFF" d="M50.8,53.8"/>
			<path fill="none" stroke="#FFFFFF" stroke-width="2" stroke-miterlimit="10" d="M50.4,54.3L47,54.3c0.2-0.1,0.2-0.1,0.3-0.4v-3.4
				c0-0.2,0.1-0.3,0.3-0.3h2.8c0.2,0,0.3,0.1,0.3,0.3V54C50.7,54.2,50.5,54.3,50.4,54.3z"/>
			<path fill="none" stroke="#FFFFFF" stroke-width="0.6531" stroke-miterlimit="10" d="M47.1,50.8"/>
			<path fill="none" stroke="#FFFFFF" stroke-width="2" stroke-miterlimit="10" d="M47.2,51v3c0,0.1-0.1,0.3-0.3,0.3h0
				c-0.1,0-0.3-0.1-0.3-0.3v-3H47.2z"/>
			<path fill="none" stroke="#FFFFFF" stroke-width="1.63" stroke-miterlimit="10" d="M48.4,51.9h-0.6c-0.1,0-0.2-0.1-0.2-0.2v-0.9
				c0-0.1,0.1-0.2,0.2-0.2h0.6c0.1,0,0.2,0.1,0.2,0.2v0.9C48.6,51.8,48.5,51.9,48.4,51.9z"/>
			<path fill="none" stroke="#FFFFFF" stroke-width="1.63" stroke-miterlimit="10" d="M48.4,53.8h-0.6c-0.1,0-0.2-0.1-0.2-0.2v-0.9
				c0-0.1,0.1-0.2,0.2-0.2h0.6c0.1,0,0.2,0.1,0.2,0.2v0.9C48.6,53.7,48.5,53.8,48.4,53.8z"/>
			
				<line fill="none" stroke="#FFFFFF" stroke-width="1.3088" stroke-linecap="round" stroke-miterlimit="10" x1="48.9" y1="50.8" x2="50.4" y2="50.8"/>
			
				<line fill="none" stroke="#FFFFFF" stroke-width="1.3088" stroke-linecap="round" stroke-miterlimit="10" x1="48.9" y1="51" x2="50.4" y2="51"/>
			
				<line fill="none" stroke="#FFFFFF" stroke-width="1.3088" stroke-linecap="round" stroke-miterlimit="10" x1="48.9" y1="51.3" x2="50.4" y2="51.3"/>
			
				<line fill="none" stroke="#FFFFFF" stroke-width="1.3088" stroke-linecap="round" stroke-miterlimit="10" x1="48.9" y1="51.6" x2="50.4" y2="51.6"/>
			
				<line fill="none" stroke="#FFFFFF" stroke-width="1.3088" stroke-linecap="round" stroke-miterlimit="10" x1="48.9" y1="51.9" x2="50.4" y2="51.9"/>
			
				<line fill="none" stroke="#FFFFFF" stroke-width="1.3088" stroke-linecap="round" stroke-miterlimit="10" x1="48.9" y1="52.5" x2="50.4" y2="52.5"/>
			
				<line fill="none" stroke="#FFFFFF" stroke-width="1.3088" stroke-linecap="round" stroke-miterlimit="10" x1="48.9" y1="52.8" x2="50.4" y2="52.8"/>
			
				<line fill="none" stroke="#FFFFFF" stroke-width="1.3088" stroke-linecap="round" stroke-miterlimit="10" x1="48.9" y1="53" x2="50.4" y2="53"/>
			
				<line fill="none" stroke="#FFFFFF" stroke-width="1.3088" stroke-linecap="round" stroke-miterlimit="10" x1="48.9" y1="53" x2="50.4" y2="53"/>
			
				<line fill="none" stroke="#FFFFFF" stroke-width="1.3088" stroke-linecap="round" stroke-miterlimit="10" x1="48.9" y1="53.3" x2="50.4" y2="53.3"/>
			
				<line fill="none" stroke="#FFFFFF" stroke-width="1.3088" stroke-linecap="round" stroke-miterlimit="10" x1="48.9" y1="53.5" x2="50.4" y2="53.5"/>
			
				<line fill="none" stroke="#FFFFFF" stroke-width="1.3088" stroke-linecap="round" stroke-miterlimit="10" x1="48.9" y1="53.7" x2="50.4" y2="53.7"/>
			
				<line fill="none" stroke="#FFFFFF" stroke-width="1.3088" stroke-linecap="round" stroke-miterlimit="10" x1="48.9" y1="53.3" x2="50.4" y2="53.3"/>
		</g>
	</g>
</g>
<g id="Calque_4" display="none">
	<g display="inline">
		<circle fill="#0AAD97" cx="48.7" cy="35.7" r="3.3"/>
		<g>
			<rect x="46.9" y="33.8" fill="none" stroke="#FFFFFF" stroke-width="3.5759" stroke-miterlimit="10" width="3.6" height="3.9"/>
			
				<line fill="none" stroke="#FFFFFF" stroke-width="4" stroke-linecap="round" stroke-miterlimit="10" x1="47.6" y1="33.2" x2="47.6" y2="34.3"/>
			
				<line fill="none" stroke="#FFFFFF" stroke-width="4" stroke-linecap="round" stroke-miterlimit="10" x1="49.8" y1="33.2" x2="49.8" y2="34.3"/>
			<path fill="none" stroke="#FFFFFF" stroke-width="2" stroke-miterlimit="10" d="M47.7,35.3h-0.4c0,0-0.1,0-0.1-0.1v-0.4
				c0,0,0-0.1,0.1-0.1h0.4c0,0,0.1,0,0.1,0.1L47.7,35.3C47.7,35.3,47.7,35.3,47.7,35.3z"/>
			<path fill="none" stroke="#FFFFFF" stroke-width="2" stroke-miterlimit="10" d="M48.5,35.3h-0.4c0,0-0.1,0-0.1-0.1v-0.4
				c0,0,0-0.1,0.1-0.1h0.4c0,0,0.1,0,0.1,0.1L48.5,35.3C48.5,35.3,48.5,35.3,48.5,35.3z"/>
			<path fill="none" stroke="#FFFFFF" stroke-width="2" stroke-miterlimit="10" d="M49.3,35.3h-0.4c0,0-0.1,0-0.1-0.1v-0.4
				c0,0,0-0.1,0.1-0.1h0.4c0,0,0.1,0,0.1,0.1L49.3,35.3C49.3,35.3,49.3,35.3,49.3,35.3z"/>
			<path fill="none" stroke="#FFFFFF" stroke-width="2" stroke-miterlimit="10" d="M50.1,35.3h-0.4c0,0-0.1,0-0.1-0.1v-0.4
				c0,0,0-0.1,0.1-0.1h0.4c0,0,0.1,0,0.1,0.1L50.1,35.3C50.1,35.3,50.1,35.3,50.1,35.3z"/>
			<path fill="none" stroke="#FFFFFF" stroke-width="2" stroke-miterlimit="10" d="M47.7,36.1h-0.4c0,0-0.1,0-0.1-0.1v-0.4
				c0,0,0-0.1,0.1-0.1h0.4c0,0,0.1,0,0.1,0.1L47.7,36.1C47.7,36.1,47.7,36.1,47.7,36.1z"/>
			<path fill="none" stroke="#FFFFFF" stroke-width="2" stroke-miterlimit="10" d="M48.5,36.1h-0.4c0,0-0.1,0-0.1-0.1v-0.4
				c0,0,0-0.1,0.1-0.1h0.4c0,0,0.1,0,0.1,0.1L48.5,36.1C48.5,36.1,48.5,36.1,48.5,36.1z"/>
			<path fill="none" stroke="#FFFFFF" stroke-width="2" stroke-miterlimit="10" d="M49.3,36.1h-0.4c0,0-0.1,0-0.1-0.1v-0.4
				c0,0,0-0.1,0.1-0.1h0.4c0,0,0.1,0,0.1,0.1L49.3,36.1C49.3,36.1,49.3,36.1,49.3,36.1z"/>
			<path fill="none" stroke="#FFFFFF" stroke-width="2" stroke-miterlimit="10" d="M50.1,36.1h-0.4c0,0-0.1,0-0.1-0.1v-0.4
				c0,0,0-0.1,0.1-0.1h0.4c0,0,0.1,0,0.1,0.1L50.1,36.1C50.1,36.1,50.1,36.1,50.1,36.1z"/>
			<path fill="none" stroke="#FFFFFF" stroke-width="2" stroke-miterlimit="10" d="M47.7,36.9h-0.4c0,0-0.1,0-0.1-0.1v-0.4
				c0,0,0-0.1,0.1-0.1h0.4c0,0,0.1,0,0.1,0.1L47.7,36.9C47.7,36.9,47.7,36.9,47.7,36.9z"/>
			<path fill="none" stroke="#FFFFFF" stroke-width="2" stroke-miterlimit="10" d="M48.5,36.9h-0.4c0,0-0.1,0-0.1-0.1v-0.4
				c0,0,0-0.1,0.1-0.1h0.4c0,0,0.1,0,0.1,0.1L48.5,36.9C48.5,36.9,48.5,36.9,48.5,36.9z"/>
			<path fill="none" stroke="#FFFFFF" stroke-width="2" stroke-miterlimit="10" d="M49.3,36.9h-0.4c0,0-0.1,0-0.1-0.1v-0.4
				c0,0,0-0.1,0.1-0.1h0.4c0,0,0.1,0,0.1,0.1L49.3,36.9C49.3,36.9,49.3,36.9,49.3,36.9z"/>
			<path fill="none" stroke="#FFFFFF" stroke-width="2" stroke-miterlimit="10" d="M50.1,36.9h-0.4c0,0-0.1,0-0.1-0.1v-0.4
				c0,0,0-0.1,0.1-0.1h0.4c0,0,0.1,0,0.1,0.1L50.1,36.9C50.1,36.9,50.1,36.9,50.1,36.9z"/>
		</g>
	</g>
</g>
</svg>
