<?xml version="1.0" encoding="utf-8"?>
<!-- Generator: Adobe Illustrator 18.0.0, SVG Export Plug-In . SVG Version: 6.00 Build 0)  -->
<!DOCTYPE svg PUBLIC "-//W3C//DTD SVG 1.1//EN" "http://www.w3.org/Graphics/SVG/1.1/DTD/svg11.dtd">
<svg version="1.1" id="Calque_1" xmlns="http://www.w3.org/2000/svg" xmlns:xlink="http://www.w3.org/1999/xlink" x="0px" y="0px"
	 viewBox="0 0 87.9 87.9" enable-background="new 0 0 87.9 87.9" xml:space="preserve">
<g id="Calque_3">
	<g>
		<circle fill="#132A1C" cx="43.9" cy="43.8" r="43.9"/>
		<g>
			<path fill="#FFFFFF" d="M44,64.1"/>
			<path fill="#FFFFFF" d="M71.6,64.1"/>
			<path fill="none" stroke="#FFFFFF" stroke-width="2.1609" stroke-miterlimit="10" d="M66.3,71.6l-43.7-0.7
				c2.3-1.3,3.2-1.2,3.4-4.8V20.9c0-2.1,1.7-3.8,3.8-3.8h36.6c2.1,0,3.8,1.7,3.8,3.8v46.8C70.1,69.9,68.5,71.6,66.3,71.6z"/>
			<path fill="none" stroke="#FFFFFF" stroke-width="2.1609" stroke-miterlimit="10" d="M23.1,24.5"/>
			<path fill="none" stroke="#FFFFFF" stroke-width="2.1609" stroke-miterlimit="10" d="M25,28.1v39.3c0,1.9-1.5,3.6-3.3,3.6h-0.6
				c-1.8,0-3.3-1.6-3.3-3.6V28.1H25z"/>
			<path fill="none" stroke="#FFFFFF" stroke-width="2.1609" stroke-miterlimit="10" d="M40.3,39.8H33c-1.5,0-2.7-1.2-2.7-2.7V25.8
				c0-1.5,1.2-2.7,2.7-2.7h7.4c1.5,0,2.7,1.2,2.7,2.7v11.3C43.1,38.6,41.9,39.8,40.3,39.8z"/>
			<path fill="none" stroke="#FFFFFF" stroke-width="2.1609" stroke-miterlimit="10" d="M40.3,63.9H33c-1.5,0-2.7-1.2-2.7-2.7V49.9
				c0-1.5,1.2-2.7,2.7-2.7h7.4c1.5,0,2.7,1.2,2.7,2.7v11.3C43.1,62.7,41.9,63.9,40.3,63.9z"/>
			
				<line fill="none" stroke="#FFFFFF" stroke-width="2.1609" stroke-linecap="round" stroke-miterlimit="10" x1="46.5" y1="24.5" x2="66.7" y2="24.5"/>
			
				<line fill="none" stroke="#FFFFFF" stroke-width="2.1609" stroke-linecap="round" stroke-miterlimit="10" x1="46.5" y1="28.1" x2="66.7" y2="28.1"/>
			
				<line fill="none" stroke="#FFFFFF" stroke-width="2.1609" stroke-linecap="round" stroke-miterlimit="10" x1="46.5" y1="31.7" x2="66.7" y2="31.7"/>
			
				<line fill="none" stroke="#FFFFFF" stroke-width="2.1609" stroke-linecap="round" stroke-miterlimit="10" x1="46.5" y1="35.3" x2="66.7" y2="35.3"/>
			
				<line fill="none" stroke="#FFFFFF" stroke-width="2.1609" stroke-linecap="round" stroke-miterlimit="10" x1="46.5" y1="38.8" x2="66.7" y2="38.8"/>
			<line fill="none" x1="46.5" y1="47.1" x2="66.7" y2="47.1"/>
			
				<line fill="none" stroke="#FFFFFF" stroke-width="2.1609" stroke-linecap="round" stroke-miterlimit="10" x1="46.5" y1="50.7" x2="66.7" y2="50.7"/>
			
				<line fill="none" stroke="#FFFFFF" stroke-width="2.1609" stroke-linecap="round" stroke-miterlimit="10" x1="46.5" y1="54.3" x2="66.7" y2="54.3"/>
			
				<line fill="none" stroke="#FFFFFF" stroke-width="2.1609" stroke-linecap="round" stroke-miterlimit="10" x1="46.5" y1="54.3" x2="66.7" y2="54.3"/>
			
				<line fill="none" stroke="#FFFFFF" stroke-width="2.1609" stroke-linecap="round" stroke-miterlimit="10" x1="46.5" y1="57.5" x2="66.7" y2="57.5"/>
			
				<line fill="none" stroke="#FFFFFF" stroke-width="2.1609" stroke-linecap="round" stroke-miterlimit="10" x1="46.5" y1="60.7" x2="66.7" y2="60.7"/>
			
				<line fill="none" stroke="#FFFFFF" stroke-width="2.1609" stroke-linecap="round" stroke-miterlimit="10" x1="46.5" y1="63.8" x2="66.7" y2="63.8"/>
			
				<line fill="none" stroke="#FFFFFF" stroke-width="2.1609" stroke-linecap="round" stroke-miterlimit="10" x1="46.5" y1="57.5" x2="66.7" y2="57.5"/>
		</g>
	</g>
</g>
</svg>
