<?xml version="1.0" encoding="utf-8"?>
<!-- Generator: Adobe Illustrator 18.0.0, SVG Export Plug-In . SVG Version: 6.00 Build 0)  -->
<!DOCTYPE svg PUBLIC "-//W3C//DTD SVG 1.1//EN" "http://www.w3.org/Graphics/SVG/1.1/DTD/svg11.dtd">
<svg version="1.1" id="Calque_1" xmlns="http://www.w3.org/2000/svg" xmlns:xlink="http://www.w3.org/1999/xlink" x="0px" y="0px"
	 viewBox="0 0 87.9 87.9" enable-background="new 0 0 87.9 87.9" xml:space="preserve">
<g id="Calque_4">
	<g>
		<circle fill="#122A1C" cx="43.7" cy="43.9" r="43.9"/>
		<g>
			<rect x="20.5" y="17.2" fill="none" stroke="#FFFFFF" stroke-width="2.1045" stroke-miterlimit="10" width="47" height="51.6"/>
			
				<line fill="none" stroke="#FFFFFF" stroke-width="2.1045" stroke-linecap="round" stroke-miterlimit="10" x1="29" y1="9.4" x2="29" y2="23.1"/>
			
				<line fill="none" stroke="#FFFFFF" stroke-width="2.1045" stroke-linecap="round" stroke-miterlimit="10" x1="59.1" y1="9.4" x2="59.1" y2="23.1"/>
			<path fill="none" stroke="#FFFFFF" stroke-width="2.1045" stroke-miterlimit="10" d="M30.8,37.2h-5.3c-0.4,0-0.8-0.3-0.8-0.8
				v-4.9c0-0.4,0.3-0.8,0.8-0.8h5.3c0.4,0,0.8,0.3,0.8,0.8v4.9C31.5,36.9,31.2,37.2,30.8,37.2z"/>
			<path fill="none" stroke="#FFFFFF" stroke-width="2.1045" stroke-miterlimit="10" d="M41.2,37.2h-5.3c-0.4,0-0.8-0.3-0.8-0.8
				v-4.9c0-0.4,0.3-0.8,0.8-0.8h5.3c0.4,0,0.8,0.3,0.8,0.8v4.9C42,36.9,41.7,37.2,41.2,37.2z"/>
			<path fill="none" stroke="#FFFFFF" stroke-width="2.1045" stroke-miterlimit="10" d="M51.8,37.2h-5.3c-0.4,0-0.8-0.3-0.8-0.8
				v-4.9c0-0.4,0.3-0.8,0.8-0.8h5.3c0.4,0,0.8,0.3,0.8,0.8v4.9C52.6,36.9,52.2,37.2,51.8,37.2z"/>
			<path fill="none" stroke="#FFFFFF" stroke-width="2.1045" stroke-miterlimit="10" d="M62.3,37.2H57c-0.4,0-0.8-0.3-0.8-0.8v-4.9
				c0-0.4,0.3-0.8,0.8-0.8h5.3c0.4,0,0.8,0.3,0.8,0.8v4.9C63.1,36.9,62.8,37.2,62.3,37.2z"/>
			<path fill="none" stroke="#FFFFFF" stroke-width="2.1045" stroke-miterlimit="10" d="M30.8,47.2h-5.3c-0.4,0-0.8-0.3-0.8-0.8
				v-4.9c0-0.4,0.3-0.8,0.8-0.8h5.3c0.4,0,0.8,0.3,0.8,0.8v4.9C31.5,46.9,31.2,47.2,30.8,47.2z"/>
			<path fill="none" stroke="#FFFFFF" stroke-width="2.1045" stroke-miterlimit="10" d="M41.2,47.2h-5.3c-0.4,0-0.8-0.3-0.8-0.8
				v-4.9c0-0.4,0.3-0.8,0.8-0.8h5.3c0.4,0,0.8,0.3,0.8,0.8v4.9C42,46.9,41.7,47.2,41.2,47.2z"/>
			<path fill="none" stroke="#FFFFFF" stroke-width="2.1045" stroke-miterlimit="10" d="M51.8,47.2h-5.3c-0.4,0-0.8-0.3-0.8-0.8
				v-4.9c0-0.4,0.3-0.8,0.8-0.8h5.3c0.4,0,0.8,0.3,0.8,0.8v4.9C52.6,46.9,52.2,47.2,51.8,47.2z"/>
			<path fill="none" stroke="#FFFFFF" stroke-width="2.1045" stroke-miterlimit="10" d="M62.3,47.2H57c-0.4,0-0.8-0.3-0.8-0.8v-4.9
				c0-0.4,0.3-0.8,0.8-0.8h5.3c0.4,0,0.8,0.3,0.8,0.8v4.9C63.1,46.9,62.8,47.2,62.3,47.2z"/>
			<path fill="none" stroke="#FFFFFF" stroke-width="2.1045" stroke-miterlimit="10" d="M30.8,58.1h-5.3c-0.4,0-0.8-0.3-0.8-0.8
				v-4.9c0-0.4,0.3-0.8,0.8-0.8h5.3c0.4,0,0.8,0.3,0.8,0.8v4.9C31.5,57.8,31.2,58.1,30.8,58.1z"/>
			<path fill="none" stroke="#FFFFFF" stroke-width="2.1045" stroke-miterlimit="10" d="M41.2,58.1h-5.3c-0.4,0-0.8-0.3-0.8-0.8
				v-4.9c0-0.4,0.3-0.8,0.8-0.8h5.3c0.4,0,0.8,0.3,0.8,0.8v4.9C42,57.8,41.7,58.1,41.2,58.1z"/>
			<path fill="none" stroke="#FFFFFF" stroke-width="2.1045" stroke-miterlimit="10" d="M51.8,58.1h-5.3c-0.4,0-0.8-0.3-0.8-0.8
				v-4.9c0-0.4,0.3-0.8,0.8-0.8h5.3c0.4,0,0.8,0.3,0.8,0.8v4.9C52.6,57.8,52.2,58.1,51.8,58.1z"/>
			<path fill="none" stroke="#FFFFFF" stroke-width="2.1045" stroke-miterlimit="10" d="M62.3,58.1H57c-0.4,0-0.8-0.3-0.8-0.8v-4.9
				c0-0.4,0.3-0.8,0.8-0.8h5.3c0.4,0,0.8,0.3,0.8,0.8v4.9C63.1,57.8,62.8,58.1,62.3,58.1z"/>
		</g>
	</g>
</g>
</svg>
