<?xml version="1.0" encoding="utf-8"?>
<!-- Generator: Adobe Illustrator 18.0.0, SVG Export Plug-In . SVG Version: 6.00 Build 0)  -->
<!DOCTYPE svg PUBLIC "-//W3C//DTD SVG 1.1//EN" "http://www.w3.org/Graphics/SVG/1.1/DTD/svg11.dtd">
<svg version="1.1" id="Calque_1" xmlns="http://www.w3.org/2000/svg" xmlns:xlink="http://www.w3.org/1999/xlink" x="0px" y="0px"
	 viewBox="0 0 850.4 566.9" enable-background="new 0 0 850.4 566.9" xml:space="preserve">
<g>
	<path d="M138.2,152.4c-4.4,0-8.5-0.8-12.2-2.5c-3.8-1.7-7-3.9-9.7-6.8l4.8-5.5c2.2,2.4,4.8,4.2,7.9,5.7c3,1.4,6.1,2.1,9.4,2.1
		c4.1,0,7.3-0.9,9.6-2.8c2.3-1.9,3.4-4.3,3.4-7.4c0-1.6-0.3-2.9-0.8-4.1c-0.5-1.1-1.3-2.1-2.2-2.9c-0.9-0.8-2-1.5-3.3-2.1
		c-1.3-0.6-2.6-1.3-4.1-2l-9-3.9c-1.5-0.6-3-1.4-4.5-2.3c-1.5-0.9-2.9-2-4.1-3.2c-1.2-1.3-2.2-2.8-3-4.5c-0.8-1.7-1.1-3.8-1.1-6.1
		c0-2.4,0.5-4.5,1.5-6.6c1-2,2.4-3.8,4.1-5.3c1.7-1.5,3.8-2.7,6.2-3.5c2.4-0.8,5-1.2,7.9-1.2c3.7,0,7.2,0.7,10.4,2.1
		c3.2,1.4,5.9,3.3,8.1,5.6l-4.3,5.1c-1.9-1.8-4-3.3-6.3-4.3c-2.3-1-4.9-1.6-7.9-1.6c-3.5,0-6.3,0.8-8.4,2.4
		c-2.1,1.6-3.2,3.9-3.2,6.7c0,1.5,0.3,2.8,0.9,3.9c0.6,1,1.4,2,2.4,2.8c1,0.8,2.1,1.5,3.3,2.1c1.2,0.6,2.4,1.2,3.7,1.7l8.9,3.8
		c1.8,0.8,3.5,1.6,5.1,2.6c1.6,1,3,2.1,4.1,3.4c1.1,1.3,2,2.8,2.7,4.6c0.7,1.7,1,3.8,1,6.1c0,2.5-0.5,4.8-1.5,7
		c-1,2.2-2.4,4.1-4.2,5.7c-1.8,1.6-4.1,2.9-6.7,3.8C144.5,151.9,141.5,152.4,138.2,152.4z"/>
	<path d="M189.3,152.4c-3.1,0-5.9-0.5-8.6-1.6c-2.7-1.1-5-2.7-6.9-4.7c-1.9-2.1-3.5-4.6-4.6-7.6c-1.1-3-1.7-6.4-1.7-10.2
		c0-3.9,0.6-7.3,1.8-10.3c1.2-3,2.8-5.6,4.9-7.7c2-2.1,4.4-3.7,7.1-4.8c2.7-1.1,5.5-1.6,8.5-1.6c3.1,0,5.7,0.5,7.8,1.6
		c2.2,1.1,4.1,2.4,5.7,3.8l-4,5.1c-1.3-1.2-2.7-2.2-4.2-3c-1.5-0.8-3.2-1.1-5-1.1c-2.1,0-4,0.4-5.8,1.3c-1.8,0.9-3.3,2.1-4.6,3.7
		c-1.3,1.6-2.3,3.5-3,5.7c-0.7,2.2-1.1,4.6-1.1,7.3c0,2.7,0.3,5.1,1,7.2c0.7,2.2,1.7,4,2.9,5.6c1.2,1.6,2.7,2.8,4.5,3.6
		c1.8,0.9,3.7,1.3,5.8,1.3c2.2,0,4.1-0.5,6-1.4c1.8-0.9,3.4-2,4.9-3.3l3.4,5.2c-2.1,1.8-4.4,3.3-7,4.3
		C194.8,151.8,192.1,152.4,189.3,152.4z"/>
	<path d="M230.5,152.4c-2.9,0-5.6-0.5-8.2-1.6c-2.6-1.1-4.8-2.7-6.8-4.7c-2-2.1-3.5-4.6-4.7-7.6c-1.2-3-1.8-6.4-1.8-10.2
		c0-3.9,0.6-7.3,1.8-10.3c1.2-3,2.7-5.6,4.7-7.7c2-2.1,4.2-3.7,6.8-4.8c2.6-1.1,5.3-1.6,8.2-1.6s5.6,0.5,8.2,1.6
		c2.6,1.1,4.8,2.7,6.8,4.8c2,2.1,3.5,4.7,4.7,7.7c1.2,3,1.8,6.5,1.8,10.3c0,3.8-0.6,7.2-1.8,10.2c-1.2,3-2.7,5.6-4.7,7.6
		c-2,2.1-4.2,3.6-6.8,4.7C236.1,151.8,233.4,152.4,230.5,152.4z M230.5,145.9c2,0,3.8-0.4,5.4-1.3c1.7-0.9,3.1-2.1,4.2-3.6
		c1.2-1.6,2.1-3.4,2.7-5.6c0.6-2.2,1-4.6,1-7.2c0-2.7-0.3-5.1-1-7.3c-0.6-2.2-1.5-4.1-2.7-5.7c-1.2-1.6-2.6-2.8-4.2-3.7
		c-1.7-0.9-3.5-1.3-5.4-1.3c-2,0-3.8,0.4-5.4,1.3c-1.7,0.9-3.1,2.1-4.2,3.7c-1.2,1.6-2.1,3.5-2.7,5.7c-0.6,2.2-1,4.6-1,7.3
		c0,2.7,0.3,5.1,1,7.2c0.6,2.2,1.5,4,2.7,5.6c1.2,1.6,2.6,2.8,4.2,3.6C226.7,145.5,228.5,145.9,230.5,145.9z"/>
	<path d="M277.7,152.4c-5,0-8.6-1.5-10.8-4.6c-2.3-3.1-3.4-7.6-3.4-13.5v-29.4h7.9v28.3c0,4.4,0.7,7.5,2,9.5
		c1.4,1.9,3.6,2.9,6.6,2.9c2.4,0,4.5-0.6,6.4-1.9c1.8-1.2,3.9-3.2,6.1-6v-32.9h7.8v46.3h-6.5l-0.7-7.2h-0.3
		c-2.2,2.5-4.4,4.6-6.8,6.1C283.7,151.6,280.9,152.4,277.7,152.4z"/>
	<path d="M330.6,152.4c-2.5,0-4.6-0.4-6.2-1.1c-1.7-0.8-3.1-1.8-4.1-3.1c-1-1.3-1.8-3-2.2-4.9c-0.4-1.9-0.7-4-0.7-6.3v-25.6h-6.9
		v-5.9l7.2-0.5l1-13h6.6v13h12.5v6.4h-12.5V137c0,2.9,0.5,5.1,1.6,6.6c1,1.6,2.9,2.3,5.6,2.3c0.8,0,1.7-0.1,2.7-0.4
		c1-0.3,1.8-0.5,2.6-0.9l1.5,5.9c-1.3,0.4-2.7,0.8-4.1,1.2C333.5,152.2,332,152.4,330.6,152.4z"/>
	<path d="M359.4,152.4c-3.3,0-6.5-0.6-9.4-1.8c-3-1.2-5.6-2.7-7.8-4.6l3.9-5.2c2,1.7,4.1,3,6.2,4c2.1,1,4.6,1.5,7.4,1.5
		c3.1,0,5.3-0.7,6.9-2.1c1.5-1.4,2.3-3.1,2.3-5.1c0-1.2-0.3-2.3-1-3.1c-0.6-0.9-1.4-1.7-2.4-2.3c-1-0.7-2.1-1.3-3.4-1.8
		c-1.3-0.5-2.5-1-3.8-1.5c-1.7-0.6-3.3-1.2-5-2c-1.7-0.7-3.1-1.6-4.4-2.7c-1.3-1-2.4-2.3-3.2-3.7c-0.8-1.4-1.2-3.1-1.2-5.1
		c0-1.8,0.4-3.6,1.1-5.2c0.7-1.6,1.8-3,3.1-4.2c1.4-1.2,3-2.1,5-2.8c2-0.7,4.2-1,6.7-1c2.9,0,5.6,0.5,8.1,1.5c2.4,1,4.6,2.3,6.3,3.7
		l-3.7,5c-1.6-1.2-3.2-2.2-5-3c-1.7-0.8-3.6-1.1-5.6-1.1c-2.9,0-5.1,0.7-6.4,2c-1.4,1.3-2,2.9-2,4.7c0,1.1,0.3,2,0.9,2.8
		c0.6,0.8,1.3,1.5,2.3,2.1c1,0.6,2,1.1,3.3,1.6c1.2,0.5,2.5,1,3.9,1.5c1.7,0.6,3.3,1.3,5,2c1.7,0.7,3.2,1.6,4.5,2.6
		c1.3,1,2.4,2.3,3.3,3.9c0.9,1.5,1.3,3.4,1.3,5.5c0,1.9-0.4,3.7-1.1,5.3c-0.7,1.7-1.8,3.1-3.2,4.4c-1.4,1.3-3.2,2.3-5.3,3
		C364.5,152,362.1,152.4,359.4,152.4z"/>
</g>
<g>
	<path d="M403.6,152.9c-1.6,0-3-0.3-4.4-0.8c-1.4-0.6-2.5-1.4-3.5-2.4c-1-1-1.8-2.3-2.4-3.8c-0.6-1.5-0.9-3.2-0.9-5.1
		c0-1.9,0.3-3.6,0.9-5.1c0.6-1.5,1.4-2.8,2.3-3.8c1-1,2.1-1.9,3.3-2.4c1.2-0.6,2.5-0.8,3.9-0.8c1.5,0,2.8,0.3,3.9,0.8
		c1.2,0.5,2.1,1.2,2.9,2.2c0.8,1,1.4,2.1,1.8,3.4c0.4,1.3,0.6,2.8,0.6,4.5c0,0.4,0,0.8,0,1.2c0,0.4-0.1,0.7-0.1,1h-15.6
		c0.2,2.5,0.9,4.4,2.3,5.9c1.4,1.4,3.2,2.2,5.4,2.2c1.1,0,2.1-0.2,3.1-0.5c0.9-0.3,1.8-0.8,2.7-1.3l1.4,2.6c-1,0.6-2.1,1.2-3.4,1.7
		S405.2,152.9,403.6,152.9z M408.7,138.9c0-2.4-0.5-4.1-1.5-5.4c-1-1.2-2.4-1.8-4.2-1.8c-0.8,0-1.6,0.2-2.4,0.5
		c-0.7,0.3-1.4,0.8-2,1.4c-0.6,0.6-1.1,1.4-1.5,2.3c-0.4,0.9-0.7,1.9-0.8,3.1H408.7z"/>
	<path d="M424.7,152.9c-1.2,0-2.3-0.2-3.1-0.6c-0.8-0.4-1.5-0.9-2-1.6c-0.5-0.7-0.9-1.5-1.1-2.4c-0.2-1-0.3-2-0.3-3.1v-12.8h-3.4v-3
		l3.6-0.2l0.5-6.5h3.3v6.5h6.2v3.2H422v12.9c0,1.4,0.3,2.5,0.8,3.3c0.5,0.8,1.5,1.2,2.8,1.2c0.4,0,0.9-0.1,1.3-0.2s0.9-0.3,1.3-0.4
		l0.8,3c-0.6,0.2-1.3,0.4-2.1,0.6C426.2,152.9,425.4,152.9,424.7,152.9z"/>
</g>
<g>
	<path d="M476.5,153.7c-4.1,0-7.9-0.7-11.4-2.2c-3.5-1.5-6.4-3.6-8.9-6.3c-2.5-2.8-4.4-6.2-5.8-10.2c-1.4-4-2.1-8.6-2.1-13.7
		c0-5,0.7-9.5,2.1-13.5c1.4-4,3.4-7.4,6-10.2c2.5-2.8,5.6-4.9,9.1-6.4c3.5-1.5,7.4-2.2,11.5-2.2c2.2,0,4.1,0.2,6,0.7
		c1.8,0.4,3.5,1,5,1.8c1.5,0.7,2.8,1.6,4,2.5c1.2,0.9,2.2,1.9,3.1,2.8l-4.4,5.1c-1.6-1.7-3.4-3.1-5.5-4.2c-2.1-1.1-4.7-1.7-7.9-1.7
		c-3.2,0-6,0.6-8.6,1.8c-2.5,1.2-4.7,2.9-6.5,5.1c-1.8,2.2-3.2,4.8-4.1,8c-1,3.1-1.5,6.6-1.5,10.5c0,3.9,0.5,7.5,1.4,10.6
		c0.9,3.1,2.3,5.8,4,8.1c1.7,2.2,3.9,3.9,6.5,5.1c2.6,1.2,5.5,1.8,8.9,1.8c2.2,0,4.3-0.3,6.3-1c2-0.7,3.6-1.6,4.9-2.7v-16.3h-13.3
		v-6.6h20.5v26.3c-2,2.1-4.7,3.8-8,5.2C484.4,153,480.7,153.7,476.5,153.7z"/>
	<path d="M523.5,153.7c-5,0-8.6-1.5-10.8-4.6c-2.3-3.1-3.4-7.6-3.4-13.5v-29.4h7.9v28.3c0,4.4,0.7,7.5,2,9.5
		c1.4,1.9,3.6,2.9,6.6,2.9c2.4,0,4.5-0.6,6.4-1.9c1.8-1.2,3.9-3.2,6.1-6v-32.9h7.8v46.3h-6.5l-0.7-7.2h-0.3
		c-2.2,2.5-4.4,4.6-6.8,6.1C529.5,152.9,526.7,153.7,523.5,153.7z"/>
	<path d="M565.8,96.7c-1.5,0-2.8-0.5-3.9-1.4c-1-1-1.6-2.2-1.6-3.6c0-1.5,0.5-2.7,1.6-3.7c1-0.9,2.3-1.4,3.9-1.4
		c1.5,0,2.8,0.5,3.9,1.4c1,0.9,1.6,2.1,1.6,3.7c0,1.5-0.5,2.7-1.6,3.6C568.6,96.2,567.3,96.7,565.8,96.7z M561.8,106.2h7.8v46.3
		h-7.8V106.2z"/>
	<path d="M601.1,153.7c-5.8,0-10.5-2.1-14-6.3c-3.5-4.2-5.2-10.2-5.2-17.9c0-3.7,0.6-7.1,1.7-10.2c1.1-3,2.6-5.6,4.4-7.7
		c1.8-2.1,4-3.7,6.4-4.9c2.4-1.1,5-1.7,7.6-1.7s5,0.5,7,1.4c2,1,4,2.3,6,3.9l-0.4-7.9V84.7h7.9v67.9H616l-0.7-5.4h-0.3
		c-1.8,1.8-4,3.3-6.3,4.6C606.3,153,603.8,153.7,601.1,153.7z M602.8,147.1c2.2,0,4.2-0.5,6.1-1.6c1.9-1,3.8-2.7,5.7-4.8v-24.2
		c-2-1.8-3.9-3-5.7-3.8c-1.8-0.7-3.7-1.1-5.6-1.1c-1.8,0-3.6,0.4-5.2,1.3c-1.6,0.9-3,2.1-4.2,3.6c-1.2,1.6-2.2,3.4-2.9,5.6
		c-0.7,2.2-1,4.6-1,7.2c0,5.6,1.1,9.9,3.3,13.1C595.6,145.6,598.7,147.1,602.8,147.1z"/>
	<path d="M656.9,153.7c-3.1,0-6-0.6-8.7-1.7c-2.7-1.1-5.1-2.7-7.1-4.8c-2-2.1-3.6-4.6-4.7-7.6c-1.1-3-1.7-6.4-1.7-10.2
		c0-3.8,0.6-7.2,1.8-10.2c1.2-3,2.7-5.6,4.7-7.7c1.9-2.1,4.1-3.7,6.6-4.8c2.5-1.1,5.1-1.7,7.7-1.7c2.9,0,5.5,0.5,7.9,1.5
		c2.3,1,4.3,2.5,5.8,4.4c1.6,1.9,2.7,4.2,3.6,6.9c0.8,2.7,1.2,5.7,1.2,9c0,0.8,0,1.6,0,2.4c0,0.8-0.1,1.5-0.2,2h-31.3
		c0.3,5,1.9,8.9,4.6,11.8c2.8,2.9,6.4,4.3,10.8,4.3c2.2,0,4.3-0.3,6.1-1c1.9-0.7,3.7-1.5,5.4-2.6l2.8,5.1c-2,1.3-4.3,2.4-6.8,3.3
		C662.9,153.2,660.1,153.7,656.9,153.7z M667.1,125.7c0-4.7-1-8.3-3-10.7c-2-2.4-4.8-3.7-8.4-3.7c-1.7,0-3.2,0.3-4.7,1
		c-1.5,0.6-2.8,1.6-4.1,2.8c-1.2,1.2-2.2,2.7-3,4.5c-0.8,1.8-1.3,3.8-1.6,6.1H667.1z"/>
	<path d="M697.5,153.7c-3.3,0-6.5-0.6-9.4-1.8c-3-1.2-5.6-2.7-7.8-4.6l3.9-5.2c2,1.7,4.1,3,6.2,4c2.1,1,4.6,1.5,7.4,1.5
		c3,0,5.3-0.7,6.9-2.1c1.5-1.4,2.3-3.1,2.3-5.1c0-1.2-0.3-2.3-1-3.1c-0.6-0.9-1.4-1.7-2.4-2.3c-1-0.7-2.1-1.3-3.4-1.8
		c-1.3-0.5-2.5-1-3.8-1.5c-1.7-0.6-3.3-1.2-5-2c-1.7-0.7-3.1-1.6-4.4-2.7c-1.3-1-2.4-2.3-3.2-3.7c-0.8-1.4-1.2-3.1-1.2-5.1
		c0-1.8,0.4-3.6,1.1-5.2c0.7-1.6,1.8-3,3.1-4.2c1.4-1.2,3-2.1,5-2.8c2-0.7,4.2-1,6.7-1c2.9,0,5.6,0.5,8.1,1.5c2.4,1,4.6,2.3,6.3,3.7
		l-3.7,5c-1.6-1.2-3.2-2.2-5-3c-1.7-0.8-3.6-1.1-5.6-1.1c-2.9,0-5.1,0.7-6.4,2c-1.4,1.3-2,2.9-2,4.7c0,1.1,0.3,2,0.9,2.8
		c0.6,0.8,1.3,1.5,2.3,2.1c1,0.6,2,1.1,3.3,1.6c1.2,0.5,2.5,1,3.9,1.5c1.7,0.6,3.3,1.3,5,2c1.7,0.7,3.2,1.6,4.5,2.6
		c1.3,1,2.4,2.3,3.3,3.9c0.9,1.5,1.3,3.4,1.3,5.5c0,1.9-0.4,3.7-1.1,5.3c-0.7,1.7-1.8,3.1-3.2,4.4c-1.4,1.3-3.2,2.3-5.3,3
		C702.7,153.3,700.3,153.7,697.5,153.7z"/>
</g>
<g>
	<path d="M352.6,241c-2.9,0-5.3-1-7-3.1c-1.7-2.1-2.6-5.1-2.6-9c0-1.9,0.3-3.6,0.8-5.1c0.6-1.5,1.3-2.8,2.2-3.8c0.9-1,2-1.9,3.2-2.4
		c1.2-0.6,2.5-0.9,3.8-0.9s2.5,0.2,3.5,0.7c1,0.5,2,1.1,3,2l-0.2-4v-8.9h4v33.9h-3.2l-0.3-2.7h-0.1c-0.9,0.9-2,1.7-3.2,2.3
		C355.3,240.6,354,241,352.6,241z M353.5,237.7c1.1,0,2.1-0.3,3.1-0.8c1-0.5,1.9-1.3,2.9-2.4v-12.1c-1-0.9-1.9-1.5-2.8-1.9
		c-0.9-0.4-1.8-0.5-2.8-0.5c-0.9,0-1.8,0.2-2.6,0.6c-0.8,0.4-1.5,1-2.1,1.8c-0.6,0.8-1.1,1.7-1.4,2.8c-0.4,1.1-0.5,2.3-0.5,3.6
		c0,2.8,0.6,5,1.7,6.5C349.9,236.9,351.5,237.7,353.5,237.7z"/>
	<path d="M380.6,241c-1.6,0-3-0.3-4.4-0.8c-1.4-0.6-2.5-1.4-3.5-2.4c-1-1-1.8-2.3-2.4-3.8c-0.6-1.5-0.9-3.2-0.9-5.1
		c0-1.9,0.3-3.6,0.9-5.1c0.6-1.5,1.4-2.8,2.3-3.8c1-1,2.1-1.9,3.3-2.4c1.2-0.6,2.5-0.8,3.9-0.8c1.5,0,2.8,0.3,3.9,0.8
		c1.2,0.5,2.1,1.2,2.9,2.2c0.8,1,1.4,2.1,1.8,3.4c0.4,1.3,0.6,2.8,0.6,4.5c0,0.4,0,0.8,0,1.2c0,0.4-0.1,0.7-0.1,1h-15.6
		c0.2,2.5,0.9,4.4,2.3,5.9c1.4,1.4,3.2,2.2,5.4,2.2c1.1,0,2.1-0.2,3.1-0.5c0.9-0.3,1.8-0.8,2.7-1.3l1.4,2.6c-1,0.6-2.1,1.2-3.4,1.7
		S382.2,241,380.6,241z M385.7,227c0-2.4-0.5-4.1-1.5-5.4c-1-1.2-2.4-1.8-4.2-1.8c-0.8,0-1.6,0.2-2.4,0.5c-0.7,0.3-1.4,0.8-2,1.4
		c-0.6,0.6-1.1,1.4-1.5,2.3c-0.4,0.9-0.7,1.9-0.8,3.1H385.7z"/>
</g>
<g>
	<path d="M415.3,178.4h36v6.7h-28.1v21.2H447v6.7h-23.8v28h-7.9V178.4z"/>
	<path d="M459.7,194.6h6.5l0.7,8.4h0.3c1.6-2.9,3.5-5.2,5.8-7c2.3-1.7,4.7-2.6,7.4-2.6c1.8,0,3.5,0.3,5,1l-1.5,6.9
		c-0.8-0.3-1.5-0.4-2.1-0.6c-0.6-0.1-1.4-0.2-2.4-0.2c-2,0-4,0.8-6.1,2.4c-2.1,1.6-4,4.4-5.6,8.3v29.7h-7.8V194.6z"/>
	<path d="M501.1,242.1c-3.9,0-7.1-1.1-9.7-3.4c-2.6-2.3-3.9-5.5-3.9-9.7c0-5.1,2.3-9,6.8-11.7c4.5-2.7,11.7-4.6,21.6-5.7
		c0-1.5-0.1-2.9-0.4-4.3c-0.3-1.4-0.8-2.6-1.5-3.7c-0.7-1.1-1.7-2-2.9-2.6c-1.2-0.7-2.8-1-4.7-1c-2.7,0-5.2,0.5-7.5,1.5
		c-2.4,1-4.4,2.2-6.3,3.4l-3.1-5.4c2.2-1.4,4.8-2.7,7.9-4.1c3.1-1.3,6.5-2,10.3-2c5.7,0,9.8,1.7,12.3,5.2c2.5,3.5,3.8,8.1,3.8,13.9
		v28.4h-6.5l-0.7-5.5h-0.3c-2.2,1.8-4.6,3.4-7.1,4.7C506.8,241.4,504.1,242.1,501.1,242.1z M503.4,235.8c2.2,0,4.3-0.5,6.3-1.6
		c2-1,4.1-2.6,6.3-4.6v-12.9c-3.9,0.5-7.1,1.1-9.8,1.8c-2.6,0.7-4.8,1.5-6.4,2.5c-1.6,1-2.8,2-3.5,3.3c-0.7,1.2-1.1,2.6-1.1,4.1
		c0,2.7,0.8,4.6,2.4,5.7C499.2,235.2,501.1,235.8,503.4,235.8z"/>
	<path d="M538.5,194.6h6.5l0.7,6.7h0.3c2.2-2.2,4.6-4.1,7-5.6c2.4-1.5,5.3-2.2,8.5-2.2c4.9,0,8.5,1.5,10.7,4.6
		c2.3,3.1,3.4,7.6,3.4,13.5v29.4h-7.8v-28.3c0-4.4-0.7-7.5-2.1-9.5c-1.4-1.9-3.6-2.9-6.7-2.9c-2.4,0-4.5,0.6-6.4,1.8
		c-1.8,1.2-3.9,3-6.3,5.3v33.6h-7.8V194.6z"/>
	<path d="M609,242.1c-3.1,0-5.9-0.5-8.6-1.6c-2.7-1.1-5-2.7-6.9-4.7c-1.9-2.1-3.5-4.6-4.6-7.6c-1.1-3-1.7-6.4-1.7-10.2
		c0-3.9,0.6-7.3,1.8-10.3c1.2-3,2.8-5.6,4.9-7.7c2-2.1,4.4-3.7,7.1-4.8c2.7-1.1,5.5-1.6,8.5-1.6c3,0,5.7,0.5,7.8,1.6
		c2.2,1.1,4.1,2.4,5.7,3.8l-4,5.1c-1.3-1.2-2.7-2.2-4.2-3s-3.2-1.1-5-1.1c-2.1,0-4,0.4-5.8,1.3c-1.8,0.9-3.3,2.1-4.6,3.7
		c-1.3,1.6-2.3,3.5-3,5.7c-0.7,2.2-1.1,4.6-1.1,7.3c0,2.7,0.3,5.1,1,7.2c0.7,2.2,1.7,4,2.9,5.6c1.2,1.6,2.7,2.8,4.5,3.6
		c1.8,0.9,3.7,1.3,5.8,1.3c2.2,0,4.1-0.5,6-1.4c1.8-0.9,3.4-2,4.9-3.3l3.4,5.2c-2.1,1.8-4.4,3.3-7,4.3
		C614.4,241.6,611.8,242.1,609,242.1z"/>
	<path d="M650.9,242.1c-3.1,0-6-0.6-8.7-1.7c-2.7-1.1-5.1-2.7-7.1-4.8c-2-2.1-3.6-4.6-4.7-7.6c-1.1-3-1.7-6.4-1.7-10.2
		c0-3.8,0.6-7.2,1.8-10.2c1.2-3,2.7-5.6,4.7-7.7c1.9-2.1,4.1-3.7,6.6-4.8c2.5-1.1,5.1-1.7,7.7-1.7c2.9,0,5.5,0.5,7.9,1.5
		c2.3,1,4.3,2.5,5.8,4.4c1.6,1.9,2.7,4.2,3.6,6.9c0.8,2.7,1.2,5.7,1.2,9c0,0.8,0,1.6,0,2.4c0,0.8-0.1,1.5-0.2,2h-31.3
		c0.3,5,1.9,8.9,4.6,11.8c2.8,2.9,6.4,4.3,10.8,4.3c2.2,0,4.3-0.3,6.1-1c1.9-0.7,3.7-1.5,5.4-2.6l2.8,5.1c-2,1.3-4.3,2.4-6.8,3.3
		C656.9,241.6,654.1,242.1,650.9,242.1z M661.1,214c0-4.7-1-8.3-3-10.7c-2-2.4-4.8-3.7-8.4-3.7c-1.7,0-3.2,0.3-4.7,1
		c-1.5,0.6-2.8,1.6-4.1,2.8c-1.2,1.2-2.2,2.7-3,4.5c-0.8,1.8-1.3,3.8-1.6,6.1H661.1z"/>
</g>
<g>
	<path d="M176.6,327.5c-4.4,0-8.5-0.8-12.2-2.5c-3.8-1.7-7-3.9-9.7-6.8l4.8-5.5c2.2,2.4,4.8,4.2,7.9,5.7c3,1.4,6.1,2.1,9.4,2.1
		c4.1,0,7.3-0.9,9.6-2.8c2.3-1.9,3.4-4.3,3.4-7.4c0-1.6-0.3-2.9-0.8-4.1c-0.5-1.1-1.3-2.1-2.2-2.9c-0.9-0.8-2-1.5-3.3-2.1
		c-1.3-0.6-2.6-1.3-4.1-2l-9-3.9c-1.5-0.6-3-1.4-4.5-2.3c-1.5-0.9-2.9-2-4.1-3.2c-1.2-1.3-2.2-2.8-3-4.5c-0.8-1.7-1.1-3.8-1.1-6.1
		c0-2.4,0.5-4.5,1.5-6.6c1-2,2.4-3.8,4.1-5.3c1.7-1.5,3.8-2.7,6.2-3.5c2.4-0.8,5-1.2,7.9-1.2c3.7,0,7.2,0.7,10.4,2.1
		c3.2,1.4,5.9,3.3,8.1,5.6l-4.3,5.1c-1.9-1.8-4-3.3-6.3-4.3c-2.3-1-4.9-1.6-7.9-1.6c-3.5,0-6.3,0.8-8.4,2.4
		c-2.1,1.6-3.2,3.9-3.2,6.7c0,1.5,0.3,2.8,0.9,3.9c0.6,1,1.4,2,2.4,2.8c1,0.8,2.1,1.5,3.3,2.1c1.2,0.6,2.4,1.2,3.7,1.7l8.9,3.8
		c1.8,0.8,3.5,1.6,5.1,2.6c1.6,1,3,2.1,4.1,3.4c1.1,1.3,2,2.8,2.7,4.6c0.7,1.7,1,3.8,1,6.1c0,2.5-0.5,4.8-1.5,7
		c-1,2.2-2.4,4.1-4.2,5.7c-1.8,1.6-4.1,2.9-6.7,3.8C182.9,327,179.9,327.5,176.6,327.5z"/>
	<path d="M220.1,327.5c-3.9,0-7.1-1.1-9.7-3.4s-3.9-5.5-3.9-9.7c0-5.1,2.3-9,6.8-11.7c4.5-2.7,11.7-4.6,21.6-5.7
		c0-1.5-0.1-2.9-0.4-4.3c-0.3-1.4-0.8-2.6-1.5-3.7c-0.7-1.1-1.7-2-2.9-2.6c-1.2-0.7-2.8-1-4.7-1c-2.7,0-5.2,0.5-7.5,1.5
		c-2.4,1-4.4,2.2-6.3,3.4l-3.1-5.4c2.2-1.4,4.8-2.7,7.9-4.1c3.1-1.3,6.5-2,10.3-2c5.7,0,9.8,1.7,12.3,5.2c2.5,3.5,3.8,8.1,3.8,13.9
		v28.4h-6.5l-0.7-5.5h-0.3c-2.2,1.8-4.6,3.4-7.1,4.7C225.7,326.8,223,327.5,220.1,327.5z M222.4,321.2c2.2,0,4.3-0.5,6.3-1.6
		c2-1,4.1-2.6,6.3-4.6v-12.9c-3.9,0.5-7.1,1.1-9.8,1.8c-2.6,0.7-4.8,1.5-6.4,2.5s-2.8,2-3.5,3.3c-0.7,1.2-1.1,2.6-1.1,4.1
		c0,2.7,0.8,4.6,2.4,5.7C218.1,320.6,220.1,321.2,222.4,321.2z"/>
	<path d="M261.5,270.5c-1.5,0-2.8-0.5-3.9-1.4c-1-1-1.6-2.2-1.6-3.6c0-1.5,0.5-2.7,1.6-3.7c1-0.9,2.3-1.4,3.9-1.4s2.8,0.5,3.9,1.4
		c1,0.9,1.6,2.1,1.6,3.7c0,1.5-0.5,2.7-1.6,3.6C264.3,270,263,270.5,261.5,270.5z M257.4,280h7.8v46.3h-7.8V280z"/>
	<path d="M280.9,280h6.5l0.7,6.7h0.3c2.2-2.2,4.6-4.1,7-5.6c2.4-1.5,5.3-2.2,8.5-2.2c4.9,0,8.5,1.5,10.7,4.6
		c2.3,3.1,3.4,7.6,3.4,13.5v29.4h-7.8V298c0-4.4-0.7-7.5-2.1-9.5c-1.4-1.9-3.6-2.9-6.7-2.9c-2.4,0-4.5,0.6-6.4,1.8
		c-1.8,1.2-3.9,3-6.3,5.3v33.6h-7.8V280z"/>
	<path d="M347.6,327.5c-2.5,0-4.6-0.4-6.2-1.1c-1.7-0.8-3.1-1.8-4.1-3.1c-1-1.3-1.8-3-2.2-4.9c-0.4-1.9-0.7-4-0.7-6.3v-25.6h-6.9
		v-5.9l7.2-0.5l1-13h6.6v13h12.5v6.4h-12.5v25.7c0,2.9,0.5,5.1,1.6,6.6c1,1.6,2.9,2.3,5.6,2.3c0.8,0,1.7-0.1,2.7-0.4
		s1.8-0.5,2.6-0.9l1.5,5.9c-1.3,0.4-2.7,0.8-4.1,1.2C350.6,327.3,349.1,327.5,347.6,327.5z"/>
	<path d="M358.9,299.5h21.9v6h-21.9V299.5z"/>
	<path d="M393.2,263.8h36v6.7h-28.1v21.2h23.8v6.7h-23.8v28h-7.9V263.8z"/>
	<path d="M443.5,270.5c-1.5,0-2.8-0.5-3.9-1.4c-1-1-1.6-2.2-1.6-3.6c0-1.5,0.5-2.7,1.6-3.7c1-0.9,2.3-1.4,3.9-1.4
		c1.5,0,2.8,0.5,3.9,1.4c1,0.9,1.6,2.1,1.6,3.7c0,1.5-0.5,2.7-1.6,3.6C446.3,270,445.1,270.5,443.5,270.5z M439.5,280h7.8v46.3h-7.8
		V280z"/>
	<path d="M473.7,327.5c-3.9,0-7.1-1.1-9.7-3.4c-2.6-2.3-3.9-5.5-3.9-9.7c0-5.1,2.3-9,6.8-11.7c4.5-2.7,11.7-4.6,21.6-5.7
		c0-1.5-0.1-2.9-0.4-4.3c-0.3-1.4-0.8-2.6-1.5-3.7c-0.7-1.1-1.7-2-2.9-2.6c-1.2-0.7-2.8-1-4.7-1c-2.7,0-5.2,0.5-7.5,1.5
		c-2.4,1-4.4,2.2-6.3,3.4l-3.1-5.4c2.2-1.4,4.8-2.7,7.9-4.1c3.1-1.3,6.5-2,10.3-2c5.7,0,9.8,1.7,12.3,5.2c2.5,3.5,3.8,8.1,3.8,13.9
		v28.4H490l-0.7-5.5H489c-2.2,1.8-4.6,3.4-7.1,4.7C479.3,326.8,476.6,327.5,473.7,327.5z M475.9,321.2c2.2,0,4.3-0.5,6.3-1.6
		c2-1,4.1-2.6,6.3-4.6v-12.9c-3.9,0.5-7.1,1.1-9.8,1.8c-2.6,0.7-4.8,1.5-6.4,2.5c-1.6,1-2.8,2-3.5,3.3c-0.7,1.2-1.1,2.6-1.1,4.1
		c0,2.7,0.8,4.6,2.4,5.7C471.7,320.6,473.7,321.2,475.9,321.2z"/>
	<path d="M529.3,327.5c-3.1,0-5.9-0.5-8.6-1.6c-2.7-1.1-5-2.7-6.9-4.7c-1.9-2.1-3.5-4.6-4.6-7.6c-1.1-3-1.7-6.4-1.7-10.2
		c0-3.9,0.6-7.3,1.8-10.3c1.2-3,2.8-5.6,4.9-7.7c2-2.1,4.4-3.7,7.1-4.8c2.7-1.1,5.5-1.6,8.5-1.6c3,0,5.7,0.5,7.8,1.6
		c2.2,1.1,4.1,2.4,5.7,3.8l-4,5.1c-1.3-1.2-2.7-2.2-4.2-3s-3.2-1.1-5-1.1c-2.1,0-4,0.4-5.8,1.3c-1.8,0.9-3.3,2.1-4.6,3.7
		c-1.3,1.6-2.3,3.5-3,5.7c-0.7,2.2-1.1,4.6-1.1,7.3c0,2.7,0.3,5.1,1,7.2c0.7,2.2,1.7,4,2.9,5.6c1.2,1.6,2.7,2.8,4.5,3.6
		c1.8,0.9,3.7,1.3,5.8,1.3c2.2,0,4.1-0.5,6-1.4c1.8-0.9,3.4-2,4.9-3.3l3.4,5.2c-2.1,1.8-4.4,3.3-7,4.3
		C534.8,327,532.1,327.5,529.3,327.5z"/>
	<path d="M554.5,280h6.5l0.7,8.4h0.3c1.6-2.9,3.5-5.2,5.8-7c2.3-1.7,4.7-2.6,7.4-2.6c1.8,0,3.5,0.3,5,1l-1.5,6.9
		c-0.8-0.3-1.5-0.4-2.1-0.6c-0.6-0.1-1.4-0.2-2.4-0.2c-2,0-4,0.8-6.1,2.4c-2.1,1.6-4,4.4-5.6,8.3v29.7h-7.8V280z"/>
	<path d="M605.4,327.5c-3.1,0-6-0.6-8.7-1.7c-2.7-1.1-5.1-2.7-7.1-4.8c-2-2.1-3.6-4.6-4.7-7.6c-1.1-3-1.7-6.4-1.7-10.2
		c0-3.8,0.6-7.2,1.8-10.2c1.2-3,2.7-5.6,4.7-7.7c1.9-2.1,4.1-3.7,6.6-4.8c2.5-1.1,5.1-1.7,7.7-1.7c2.9,0,5.5,0.5,7.9,1.5
		c2.3,1,4.3,2.5,5.8,4.4c1.6,1.9,2.7,4.2,3.6,6.9c0.8,2.7,1.2,5.7,1.2,9c0,0.8,0,1.6,0,2.4c0,0.8-0.1,1.5-0.2,2h-31.3
		c0.3,5,1.9,8.9,4.6,11.8c2.8,2.9,6.4,4.3,10.8,4.3c2.2,0,4.3-0.3,6.1-1c1.9-0.7,3.7-1.5,5.4-2.6l2.8,5.1c-2,1.3-4.3,2.4-6.8,3.3
		S608.6,327.5,605.4,327.5z M615.6,299.5c0-4.7-1-8.3-3-10.7c-2-2.4-4.8-3.7-8.4-3.7c-1.7,0-3.2,0.3-4.7,1c-1.5,0.6-2.8,1.6-4.1,2.8
		c-1.2,1.2-2.2,2.7-3,4.5c-0.8,1.8-1.3,3.8-1.6,6.1H615.6z"/>
</g>
<g>
	<path d="M193.4,347.2h17.8c3.5,0,6.7,0.3,9.6,1c2.9,0.6,5.4,1.7,7.4,3.1c2,1.4,3.6,3.3,4.8,5.7c1.1,2.4,1.7,5.2,1.7,8.7
		c0,3.3-0.6,6.2-1.7,8.6c-1.1,2.4-2.7,4.4-4.7,6c-2,1.6-4.5,2.8-7.3,3.6c-2.8,0.8-6,1.2-9.4,1.2h-10.3v24.8h-7.9V347.2z
		 M210.6,378.5c5.5,0,9.5-1,12.2-3.1c2.6-2.1,4-5.3,4-9.8c0-4.5-1.4-7.6-4.1-9.4c-2.8-1.7-6.9-2.6-12.3-2.6h-9v24.9H210.6z"/>
	<path d="M260.1,410.9c-5,0-8.6-1.5-10.8-4.6c-2.3-3.1-3.4-7.6-3.4-13.5v-29.4h7.9v28.3c0,4.4,0.7,7.5,2,9.5
		c1.4,1.9,3.6,2.9,6.6,2.9c2.4,0,4.5-0.6,6.4-1.9c1.8-1.2,3.9-3.2,6.1-6v-32.9h7.8v46.3h-6.5l-0.7-7.2h-0.3
		c-2.2,2.5-4.4,4.6-6.8,6.1C266.1,410.1,263.3,410.9,260.1,410.9z"/>
	<path d="M306.7,410.9c-3,0-5.1-0.9-6.4-2.7c-1.3-1.8-1.9-4.4-1.9-7.8v-58.5h7.8V401c0,1.3,0.2,2.2,0.7,2.7c0.4,0.5,1,0.8,1.5,0.8
		c0.3,0,0.5,0,0.7,0c0.2,0,0.6-0.1,1-0.2l1,5.9c-0.5,0.3-1.1,0.4-1.8,0.6C308.7,410.8,307.8,410.9,306.7,410.9z"/>
	<path d="M322.7,363.4h6.5l0.7,6.7h0.3c2.2-2.2,4.6-4.1,7-5.6c2.4-1.5,5.3-2.2,8.5-2.2c4.9,0,8.5,1.5,10.7,4.6
		c2.3,3.1,3.4,7.6,3.4,13.5v29.4H352v-28.3c0-4.4-0.7-7.5-2.1-9.5c-1.4-1.9-3.6-2.9-6.7-2.9c-2.4,0-4.5,0.6-6.4,1.8
		c-1.8,1.2-3.9,3-6.3,5.3v33.6h-7.8V363.4z"/>
	<path d="M392.9,410.9c-2.9,0-5.6-0.5-8.2-1.6s-4.8-2.7-6.8-4.7c-2-2.1-3.5-4.6-4.7-7.6c-1.2-3-1.8-6.4-1.8-10.2
		c0-3.9,0.6-7.3,1.8-10.3c1.2-3,2.7-5.6,4.7-7.7c2-2.1,4.2-3.7,6.8-4.8c2.6-1.1,5.3-1.6,8.2-1.6s5.6,0.5,8.2,1.6
		c2.6,1.1,4.8,2.7,6.8,4.8c2,2.1,3.5,4.7,4.7,7.7c1.2,3,1.8,6.5,1.8,10.3c0,3.8-0.6,7.2-1.8,10.2c-1.2,3-2.7,5.6-4.7,7.6
		c-2,2.1-4.2,3.6-6.8,4.7C398.4,410.4,395.7,410.9,392.9,410.9z M392.9,404.4c2,0,3.8-0.4,5.4-1.3c1.7-0.9,3.1-2.1,4.2-3.6
		c1.2-1.6,2.1-3.4,2.7-5.6c0.6-2.2,1-4.6,1-7.2c0-2.7-0.3-5.1-1-7.3c-0.6-2.2-1.5-4.1-2.7-5.7c-1.2-1.6-2.6-2.8-4.2-3.7
		c-1.7-0.9-3.5-1.3-5.4-1.3c-2,0-3.8,0.4-5.4,1.3c-1.7,0.9-3.1,2.1-4.2,3.7c-1.2,1.6-2.1,3.5-2.7,5.7c-0.6,2.2-1,4.6-1,7.3
		c0,2.7,0.3,5.1,1,7.2c0.6,2.2,1.5,4,2.7,5.6c1.2,1.6,2.6,2.8,4.2,3.6C389.1,404,390.9,404.4,392.9,404.4z"/>
	<path d="M426.9,429.7c-1.1,0-2.1-0.1-3-0.2c-0.9-0.2-1.7-0.4-2.5-0.7l1.5-6.2c0.5,0.1,1.1,0.3,1.7,0.4c0.6,0.2,1.2,0.2,1.8,0.2
		c2.7,0,4.8-0.9,6.5-2.8c1.7-1.9,3-4.2,4-7.1l1-3.4l-18.6-46.4h8.1l9.4,25.6c0.7,2,1.4,4.2,2.2,6.4c0.8,2.3,1.5,4.5,2.2,6.6h0.4
		c0.7-2.1,1.4-4.3,2-6.6c0.6-2.3,1.3-4.4,1.9-6.5l8.3-25.6h7.6l-17.4,50.1c-0.8,2.3-1.7,4.4-2.8,6.4c-1,2-2.2,3.7-3.6,5.1
		c-1.4,1.4-3,2.6-4.8,3.4C431.3,429.3,429.3,429.7,426.9,429.7z"/>
</g>
<path fill="none" stroke="#000000" stroke-width="1.2282" stroke-miterlimit="10" d="M229.3,392.9"/>
<path fill="none" stroke="#000000" stroke-width="6.6201" stroke-miterlimit="10" d="M262.6,429.8"/>
<path fill="none" stroke="#000000" stroke-width="10" stroke-miterlimit="10" d="M376.9,75c134.4-83.2,288.4-77.8,344,12
	s-8.2,230.1-142.5,313.4c-94.8,58.7-199.4,73.3-272.4,45.2"/>
<path fill="none" stroke="#000000" stroke-width="10" stroke-miterlimit="10" d="M288.3,417.5c10.8,8,12.3,24.4,3.2,36.8
	s-25.2,15.9-36,8c-10.8-8-12.3-24.4-3.2-36.8"/>
<path fill="none" stroke="#000000" stroke-width="10" stroke-miterlimit="10" d="M288.4,467.4c25.2,14,16.8,95.6-17.9,95.6
	c3.9-41-26.5-77.2-13.3-84.7"/>
<path fill="none" stroke="#000000" stroke-width="10" stroke-miterlimit="10" d="M242,468.1c-27.4,11.5-22.9,79.5-7.9,84.8
	c11.1-18.5,15.8-29.2,23.2-30.9"/>
</svg>
